<svg width="58" height="58" viewBox="0 0 58 58" fill="none" xmlns="http://www.w3.org/2000/svg">
<g id="Group 10954">
<rect id="Rectangle 25133" width="58" height="58" rx="9" fill="#F7F7F7"/>
<g id="Group 10960">
<path id="Vector" d="M28.5051 21.6762C30.4514 21.6762 32.0353 23.26 32.0353 25.2063C32.0353 27.1526 30.4514 28.7364 28.5051 28.7364C26.5589 28.7364 24.975 27.1526 24.975 25.2063C24.975 23.26 26.5589 21.6762 28.5051 21.6762ZM25.6659 25.2063C25.6659 26.7717 26.9393 28.0455 28.5051 28.0455C30.0705 28.0455 31.3443 26.7717 31.3443 25.2063C31.3443 23.6409 30.071 22.3671 28.5051 22.3671C26.9393 22.3671 25.6659 23.6409 25.6659 25.2063Z" fill="black" stroke="#F7F7F7" stroke-width="0.2"/>
<path id="Vector_2" d="M25.6752 33.4925L25.7093 33.5449L28.2163 37.3976L25.6752 33.4925ZM25.6752 33.4925L25.6132 33.5002M25.6752 33.4925L25.6132 33.5002M25.6132 33.5002C23.7437 33.7324 22.2981 34.161 21.3168 34.6563C20.8263 34.9039 20.448 35.17 20.1909 35.4399C19.9347 35.7089 19.7909 35.9905 19.7909 36.2665C19.7909 36.6479 20.0404 37.0193 20.4604 37.3561C20.8831 37.6951 21.4951 38.013 22.2606 38.2865C23.7926 38.8338 25.9579 39.2095 28.505 39.2095C31.0524 39.2095 33.2178 38.8338 34.7498 38.2865C35.5153 38.013 36.1273 37.6951 36.55 37.3561C36.97 37.0193 37.2195 36.6479 37.2195 36.2665C37.2195 35.9905 37.0759 35.709 36.8197 35.4399C36.5627 35.17 36.1845 34.9039 35.6942 34.6564C34.7131 34.1611 33.2679 33.7326 31.3986 33.5007L31.3366 33.493L31.3025 33.5454L29.5653 36.2146L29.0058 37.0745L28.8502 37.3135L28.8094 37.3763L28.7989 37.3924L28.7963 37.3965L28.7956 37.3975L28.7954 37.3977L28.7954 37.3978L28.8792 37.4524L28.7954 37.3978M25.6132 33.5002L28.7954 37.3978M28.7954 37.3978L28.7954 37.3978M28.7954 37.3978L28.7954 37.3978M28.7954 37.3978C28.7319 37.4954 28.6227 37.5546 28.5059 37.5546C28.3893 37.5546 28.2804 37.4956 28.2164 37.3978L28.7954 37.3978ZM31.8419 32.7164L31.7566 32.8476L31.9115 32.8699C33.7647 33.1368 35.2724 33.6033 36.3136 34.1993C37.3584 34.7973 37.9104 35.5108 37.9104 36.2661C37.9104 36.8348 37.6243 37.346 37.1074 37.7973C36.5894 38.2494 35.8463 38.6352 34.9525 38.9481C33.1656 39.5737 30.801 39.9 28.505 39.9C26.209 39.9 23.8445 39.5737 22.0577 38.9481C21.164 38.6352 20.4209 38.2494 19.903 37.7973C19.3861 37.346 19.1 36.8348 19.1 36.2661C19.1 35.5106 19.6523 34.7968 20.6973 34.1986C21.7389 33.6023 23.2469 33.1357 25.1003 32.869L25.2552 32.8467L25.1698 32.7155L22.7732 29.0328L22.7732 29.0327L22.7715 29.0303C21.9622 27.8649 21.5367 26.5043 21.5367 25.0683C21.5367 21.2261 24.6628 18.1 28.505 18.1C32.3472 18.1 35.4733 21.2261 35.4733 25.0683C35.4733 26.454 35.0671 27.7933 34.299 28.9408L34.2983 28.9419C34.2733 28.9802 33.0991 30.7844 31.8419 32.7164ZM23.5761 28.9558L23.5892 28.9724C23.6142 29.0083 23.6314 29.0476 23.6413 29.0882L23.6453 29.1048L23.6547 29.1191L28.4225 36.4462L28.5063 36.575L28.5902 36.4462L32.8622 29.8813L32.8622 29.8813L32.8904 29.8381C33.353 29.1274 33.5901 28.7631 33.7389 28.5746L33.8061 28.4896L33.7799 28.4721C34.436 27.4578 34.7823 26.2826 34.7823 25.0678C34.7823 21.6065 31.9663 18.7905 28.505 18.7905C25.0437 18.7905 22.2277 21.6065 22.2277 25.0678C22.2277 26.3123 22.583 27.4951 23.2599 28.5188L23.2594 28.5191L23.2665 28.5277C23.2752 28.5381 23.2831 28.5488 23.2903 28.5597C23.2904 28.5598 23.2904 28.5599 23.2905 28.5599L23.344 28.6427L23.344 28.6427L23.3459 28.6455C23.4193 28.7511 23.4962 28.8542 23.5761 28.9558Z" fill="black" stroke="#F7F7F7" stroke-width="0.2"/>
</g>
</g>
</svg>
