<svg width="210" height="33" viewBox="0 0 210 33" fill="none" xmlns="http://www.w3.org/2000/svg">
<path d="M17.4945 9.49025L17.4141 9.43359C17.4506 9.47014 17.4817 9.49208 17.4945 9.49025Z" fill="#EB212E"/>
<path d="M18.3135 21.7598L18.3939 21.7031C18.3464 21.7251 18.3153 21.7452 18.3135 21.7598Z" fill="#EB212E"/>
<path d="M26.5323 14.8837C29.9886 12.5151 30.1311 11.5861 27.124 9.32758C22.2714 5.68185 19.0099 4.8286 15.6943 3.48828C20.1302 5.95605 26.0471 9.80021 25.551 12.5115C24.7627 16.8085 17.3395 18.8162 17.3395 18.8162C17.4477 18.809 18.669 18.5907 19.9444 18.0351C20.7471 17.687 24.3405 16.3863 26.5341 14.8837H26.5323Z" fill="#EB212E"/>
<path d="M11.0097 1.07182C11.0097 1.07182 13.0986 2.04594 15.6927 3.48908C19.0083 4.82939 22.2698 5.68265 27.1223 9.32838C30.1295 11.5887 29.987 12.5177 26.5306 14.8845C24.3353 16.3889 20.7437 17.6878 19.9409 18.0359C18.6655 18.5897 17.4443 18.808 17.336 18.817C16.7642 18.8567 16.214 18.7467 15.68 18.5681C15.2182 18.4147 14.7618 18.2488 14.2784 18.1694C14.0295 18.1279 13.7841 18.1351 13.5388 18.2181C13.3007 18.2993 13.0589 18.3714 12.819 18.449C12.7775 18.4616 12.7378 18.4797 12.7018 18.5031C12.5809 18.5825 12.5557 18.6511 12.5953 18.7882C12.6495 18.9776 12.7054 19.1652 12.7613 19.3528C12.7829 19.4249 12.8046 19.4989 12.828 19.5801C12.7811 19.5945 12.7451 19.6071 12.7108 19.618C12.1245 19.8056 11.5364 19.9932 10.9502 20.1808C10.8582 20.2096 10.7698 20.2439 10.7084 20.3269C10.6074 20.464 10.6002 20.6336 10.694 20.7689C10.7806 20.8951 10.9411 20.9456 11.1035 20.8951C11.6194 20.731 12.1353 20.5668 12.6513 20.4027C12.7739 20.363 12.8984 20.3233 13.0265 20.2818C13.3007 21.218 13.5713 22.1453 13.8455 23.0833C13.8094 23.0941 13.7769 23.1049 13.7444 23.1158C13.1383 23.3088 12.5304 23.5018 11.9243 23.6966C11.6681 23.7796 11.5671 24.0682 11.7186 24.2721C11.8142 24.4038 11.9748 24.4435 12.166 24.3821C12.7595 24.1927 13.3512 24.0033 13.9447 23.8139C13.9771 23.8031 14.0096 23.7922 14.0547 23.7778C14.0673 23.8211 14.0764 23.8518 14.0854 23.8806C14.1539 24.1187 14.2279 24.3551 14.2928 24.595C14.3181 24.6906 14.3776 24.7429 14.4696 24.7519C14.5327 24.7591 14.6031 24.7573 14.6626 24.7393C14.926 24.6599 15.1912 24.5842 15.4473 24.4867C15.5917 24.4326 15.7306 24.3515 15.8532 24.2595C16.1364 24.0448 16.3547 23.767 16.573 23.491C16.8291 23.1663 17.0691 22.8307 17.3378 22.5169C17.603 22.2066 18.3156 21.743 18.312 21.7574C18.3138 21.743 18.3462 21.7249 18.3913 21.7015C18.5284 21.6365 18.799 21.55 18.8387 21.5337C20.4352 20.8645 22.0371 20.2133 23.6101 19.4899C25.2643 18.7286 26.9059 17.9042 28.4194 16.885C29.5648 16.1147 30.8474 15.1532 31.4012 13.84C31.4914 13.6253 31.56 13.3998 31.5925 13.1671C32.4619 7.07167 15.9524 1.96296 11.0097 1.06641V1.07182Z" fill="#EB212E"/>
<path d="M8.17441 4.20127C4.74695 1.79303 3.82515 1.98425 2.76264 5.5939C1.04711 11.417 1.38985 14.7705 1.29785 18.3458C2.0555 13.3255 3.58342 6.43814 6.29652 5.95288C10.5971 5.18622 15.078 11.4368 15.078 11.4368C15.0329 11.3376 14.4016 10.2715 13.4347 9.2703C12.8267 8.64073 10.3517 5.731 8.17441 4.20127Z" fill="#EB212E"/>
<path d="M22.1025 14.3275C21.7182 13.8386 21.3322 13.3498 20.9462 12.8609C20.9245 12.8338 20.9047 12.8068 20.874 12.7707C20.9101 12.7436 20.9353 12.7256 20.9606 12.7058C21.159 12.5578 21.3557 12.4063 21.5559 12.262C21.6371 12.2043 21.6641 12.1303 21.6425 12.0419C21.6262 11.9806 21.601 11.9156 21.5631 11.8651C21.3972 11.6468 21.233 11.425 21.0526 11.2175C20.9516 11.1021 20.8271 10.9992 20.6972 10.9163C20.3978 10.7268 20.0604 10.6186 19.7249 10.5104C19.3317 10.3841 18.933 10.2777 18.5451 10.1352C18.1627 9.99445 17.4772 9.49116 17.4935 9.48755C17.479 9.48935 17.4502 9.46771 17.4141 9.43163C17.304 9.3252 17.1291 9.10331 17.1002 9.07265C15.915 7.8117 14.7443 6.53813 13.5158 5.31868C12.2224 4.03609 10.8767 2.78778 9.39204 1.72707C8.26819 0.927931 6.91885 0.0620478 5.49375 0.00251834C5.26105 -0.00650128 5.02474 0.00793011 4.79744 0.05844C-1.21684 1.37891 -0.219273 18.6334 0.673669 23.5762C0.673669 23.5762 0.854065 21.2798 1.29783 18.343C1.39163 14.7676 1.04708 11.4141 2.76262 5.59107C3.82513 1.98142 4.74693 1.79201 8.17439 4.19845C10.3517 5.72817 12.8267 8.6361 13.4346 9.26747C14.3997 10.2686 15.0329 11.3348 15.078 11.434C15.3143 11.9553 15.4063 12.5109 15.4262 13.0719C15.4442 13.5572 15.4496 14.0443 15.5434 14.5241C15.5921 14.7712 15.6841 14.9985 15.8465 15.2006C16.0052 15.3954 16.1586 15.5956 16.3137 15.7941C16.3407 15.8283 16.3714 15.859 16.4057 15.8861C16.5229 15.9727 16.5951 15.9709 16.7106 15.8861C16.8675 15.7688 17.0244 15.6498 17.1814 15.5325C17.2427 15.4874 17.3022 15.4423 17.3708 15.39C17.4015 15.4297 17.4249 15.4585 17.4466 15.4874C17.829 15.9709 18.2096 16.4561 18.592 16.9396C18.6516 17.0153 18.7147 17.0857 18.8139 17.1145C18.9781 17.1614 19.1386 17.1073 19.2324 16.9738C19.3208 16.8476 19.3118 16.6798 19.2072 16.5463C18.8735 16.1206 18.5379 15.6949 18.2024 15.2709C18.123 15.1699 18.0418 15.0671 17.9589 14.9607C18.74 14.3762 19.5139 13.7971 20.2968 13.2127C20.3202 13.2433 20.3419 13.2686 20.3617 13.2956C20.755 13.7953 21.1482 14.2968 21.5433 14.7965C21.7092 15.0076 22.0159 15.0003 22.1548 14.7875C22.245 14.6504 22.2252 14.488 22.1007 14.3293L22.1025 14.3275Z" fill="#EB212E"/>
<path d="M6.31274 25.9614C6.14497 30.1465 6.8034 30.8176 10.4131 29.7569C16.2379 28.0468 18.8717 25.9434 21.9275 24.0854C17.2968 26.1653 10.6764 28.6096 8.80215 26.591C5.82929 23.3908 8.65784 16.2383 8.65784 16.2383C8.59831 16.3303 8.04451 17.4379 7.72521 18.7926C7.52498 19.6459 6.41917 23.3024 6.31093 25.9596L6.31274 25.9614Z" fill="#EB212E"/>
<path d="M7.28899 8.7667C7.08695 9.35477 6.88491 9.94285 6.68107 10.5327C6.67025 10.5652 6.65943 10.5977 6.64319 10.6428C6.5999 10.6265 6.57103 10.6157 6.54217 10.6049C6.30946 10.5183 6.07676 10.4353 5.84585 10.3433C5.75385 10.3072 5.67628 10.3235 5.61315 10.3902C5.56985 10.4371 5.53017 10.4931 5.50671 10.5526C5.41291 10.8105 5.3155 11.0685 5.23974 11.3319C5.19825 11.4798 5.1784 11.6403 5.1784 11.7937C5.1802 12.1491 5.27221 12.49 5.3624 12.8309C5.46883 13.2296 5.59511 13.6229 5.68531 14.0251C5.7755 14.4238 5.72138 15.2716 5.71056 15.259C5.71958 15.2698 5.71778 15.3059 5.70695 15.3564C5.67629 15.5062 5.58428 15.7749 5.57526 15.8146C5.15675 17.4941 4.7202 19.1681 4.36122 20.8602C3.9824 22.6407 3.6613 24.45 3.57291 26.272C3.50616 27.6502 3.50977 29.2539 4.23134 30.4841C4.3504 30.6862 4.4893 30.8738 4.65526 31.0397C9.02076 35.3818 22.9885 25.2022 26.6613 21.7766C26.6613 21.7766 24.6319 22.868 21.9242 24.0838C18.8684 25.94 16.2346 28.0452 10.4098 29.7553C6.80013 30.8161 6.1417 30.145 6.30946 25.9599C6.41589 23.3027 7.5217 19.6444 7.72374 18.7929C8.04303 17.4382 8.59683 16.3305 8.65636 16.2385C8.96664 15.7569 9.38335 15.3799 9.84515 15.0588C10.2438 14.781 10.6497 14.514 11.0033 14.1731C11.1855 13.9981 11.3262 13.7978 11.4073 13.5525C11.4849 13.3126 11.5715 13.0763 11.6527 12.8382C11.6671 12.7967 11.6761 12.7534 11.6797 12.7119C11.6888 12.5676 11.6491 12.5062 11.5156 12.4557C11.3316 12.3872 11.1476 12.3186 10.9636 12.2501C10.8932 12.223 10.8211 12.1978 10.7417 12.1671C10.7579 12.1202 10.7706 12.0859 10.7814 12.0498C10.9816 11.4672 11.1819 10.8845 11.3821 10.3C11.4128 10.208 11.438 10.1178 11.4092 10.0186C11.3604 9.85627 11.227 9.74983 11.0628 9.74262C10.9095 9.73721 10.7724 9.83462 10.7164 9.99697C10.5397 10.5075 10.3629 11.0198 10.1861 11.5321C10.1446 11.6548 10.1013 11.7774 10.058 11.9055C9.14343 11.5646 8.23786 11.2272 7.32327 10.8863C7.33589 10.8502 7.34672 10.8178 7.35754 10.7871C7.56499 10.1846 7.77424 9.58387 7.97989 8.98136C8.06648 8.72701 7.89511 8.47446 7.64076 8.47266C7.47841 8.47266 7.35033 8.57548 7.28539 8.76489L7.28899 8.7667Z" fill="#EB212E"/>
<path d="M207.674 11.4819C207.343 11.4819 207.035 11.4268 206.752 11.3142C206.47 11.2015 206.226 11.0453 206.019 10.8476C205.812 10.65 205.652 10.4155 205.537 10.1443C205.422 9.87312 205.364 9.57894 205.364 9.25947C205.364 8.94 205.422 8.65271 205.537 8.38151C205.652 8.11031 205.812 7.87818 206.019 7.68282C206.226 7.48746 206.47 7.33118 206.752 7.21856C207.035 7.10594 207.341 7.05078 207.674 7.05078C208.007 7.05078 208.313 7.10824 208.598 7.21856C208.883 7.33118 209.129 7.48516 209.338 7.68282C209.547 7.88048 209.71 8.1126 209.825 8.38151C209.94 8.65041 210 8.9446 210 9.25947C210 9.57434 209.943 9.87312 209.825 10.1443C209.708 10.4155 209.545 10.6477 209.338 10.8476C209.129 11.0453 208.883 11.2015 208.598 11.3142C208.313 11.4268 208.005 11.4819 207.674 11.4819ZM207.674 11.1809C207.952 11.1809 208.212 11.1349 208.453 11.0407C208.695 10.9464 208.904 10.8154 209.083 10.6477C209.262 10.4799 209.4 10.2776 209.504 10.0432C209.607 9.80876 209.658 9.55135 209.658 9.27326C209.658 8.99516 209.607 8.75154 209.508 8.51941C209.407 8.28728 209.269 8.08273 209.094 7.91265C208.917 7.74028 208.711 7.60467 208.469 7.50815C208.228 7.40932 207.964 7.36105 207.676 7.36105C207.389 7.36105 207.127 7.40932 206.888 7.50815C206.649 7.60697 206.442 7.74028 206.267 7.91265C206.093 8.08503 205.957 8.28498 205.858 8.51711C205.76 8.74924 205.711 8.99746 205.711 9.26177C205.711 9.52607 205.76 9.78348 205.858 10.0156C205.957 10.2477 206.093 10.4523 206.267 10.627C206.442 10.8016 206.649 10.9372 206.888 11.0361C207.127 11.1349 207.389 11.1832 207.676 11.1832L207.674 11.1809ZM206.679 7.90346H207.876C207.998 7.90346 208.113 7.93104 208.221 7.9839C208.327 8.03676 208.419 8.10571 208.495 8.19305C208.57 8.27809 208.63 8.37461 208.674 8.48263C208.718 8.58836 208.738 8.69638 208.738 8.8067C208.738 8.97448 208.692 9.13306 208.603 9.28015C208.513 9.42725 208.393 9.53067 208.246 9.58813L208.878 10.6063H208.221L207.656 9.69845H207.263V10.6063H206.679V7.90576V7.90346ZM207.826 9.19282C207.929 9.19282 208.01 9.15834 208.069 9.09169C208.129 9.02504 208.159 8.92851 208.159 8.8067C208.159 8.67569 208.125 8.57916 208.058 8.51481C207.991 8.45046 207.908 8.42058 207.814 8.42058H207.263V9.19282H207.828H207.826Z" fill="black"/>
<path d="M134.689 22.8554H125.716C125.374 22.8554 124.997 22.7933 124.59 22.6715C124.181 22.5497 123.804 22.3521 123.454 22.074C123.107 21.7959 122.818 21.4373 122.586 20.9938C122.351 20.5502 122.236 20.0078 122.236 19.3642V10.3916C122.236 10.2192 122.269 10.056 122.331 9.90206C122.395 9.74807 122.48 9.61477 122.595 9.49985C122.705 9.38494 122.836 9.2976 122.99 9.23095C123.144 9.1689 123.31 9.13672 123.489 9.13672H134.686V11.6235H124.721V19.362C124.721 19.686 124.806 19.9342 124.978 20.1066C125.148 20.279 125.403 20.364 125.732 20.364H134.684V22.8508L134.689 22.8554ZM133.569 17.2498H125.718V14.7446H133.569V17.2498ZM119.899 21.6028C119.899 21.7821 119.867 21.9499 119.805 22.1015C119.74 22.2509 119.651 22.3865 119.54 22.4969C119.43 22.6072 119.294 22.6968 119.143 22.7612C118.993 22.8232 118.826 22.8554 118.646 22.8554H109.674C109.446 22.8554 109.198 22.8301 108.931 22.775C108.667 22.7198 108.405 22.6371 108.148 22.5198C107.89 22.4049 107.642 22.2578 107.408 22.0763C107.169 21.897 106.959 21.6741 106.78 21.4167C106.596 21.1592 106.454 20.8582 106.346 20.518C106.235 20.1756 106.183 19.794 106.183 19.3665V12.6302C106.183 12.4026 106.208 12.1544 106.265 11.8901C106.318 11.6258 106.403 11.3638 106.516 11.1064C106.631 10.849 106.78 10.6008 106.966 10.3663C107.152 10.1319 107.371 9.92274 107.633 9.73888C107.89 9.55501 108.189 9.41252 108.525 9.3045C108.865 9.19418 109.246 9.14132 109.674 9.14132H119.784V11.6281H109.674C109.347 11.6281 109.099 11.7131 108.929 11.8855C108.757 12.0556 108.667 12.313 108.667 12.6486V19.3642C108.667 19.6814 108.754 19.9296 108.931 20.1043C109.108 20.2767 109.352 20.3663 109.674 20.3663H117.412V17.2475H110.795V14.7423H118.646C118.826 14.7423 118.993 14.7745 119.143 14.8412C119.297 14.9101 119.43 15.002 119.54 15.1147C119.651 15.2296 119.74 15.3629 119.805 15.51C119.867 15.6594 119.899 15.8225 119.899 15.9926V21.5982V21.6028ZM103.868 13.7517C103.868 14.3194 103.797 14.8251 103.657 15.2732C103.516 15.7168 103.328 16.1121 103.089 16.4546C102.85 16.7947 102.574 17.0843 102.259 17.3302C101.949 17.5716 101.623 17.7715 101.28 17.9278C100.94 18.0841 100.595 18.1944 100.248 18.2679C99.8989 18.3369 99.5726 18.3714 99.2646 18.3714L104.459 22.8577H100.616L95.431 18.3714H93.6429V15.8846H99.2646C99.5772 15.8593 99.8645 15.7927 100.124 15.6892C100.382 15.5858 100.605 15.4433 100.793 15.264C100.979 15.0848 101.126 14.8687 101.227 14.6182C101.328 14.3677 101.381 14.0804 101.381 13.754V12.1843C101.381 12.0441 101.365 11.9384 101.328 11.8648C101.292 11.7936 101.246 11.7384 101.195 11.7039C101.14 11.6672 101.085 11.6442 101.023 11.6396C100.961 11.6373 100.906 11.6327 100.857 11.6327H92.65V22.86H90.1632V10.3985C90.1632 10.2261 90.1954 10.0629 90.2621 9.90895C90.3241 9.75497 90.4115 9.62166 90.5241 9.50675C90.6344 9.39183 90.77 9.3045 90.9217 9.23785C91.0757 9.17579 91.2389 9.14361 91.4181 9.14361H100.86C101.414 9.14361 101.882 9.24474 102.264 9.44469C102.65 9.64695 102.96 9.89976 103.197 10.2031C103.436 10.5042 103.608 10.8306 103.712 11.1822C103.82 11.5316 103.873 11.8625 103.873 12.1682V13.754L103.868 13.7517ZM76.4331 17.0039H85.1759V11.6304H80.8045C80.7263 11.6304 80.5655 11.6396 80.3218 11.6626C80.0759 11.6856 79.7932 11.7407 79.4692 11.8281C79.1497 11.9154 78.8095 12.0533 78.451 12.2395C78.0948 12.4256 77.7661 12.6807 77.465 13.0025C77.1685 13.3289 76.9203 13.738 76.725 14.2229C76.5319 14.7101 76.4354 15.3031 76.4354 15.9949V17.0016L76.4331 17.0039ZM87.6604 22.8577H85.1759V19.4907H76.4331V22.8577H73.9463V15.9972C73.9463 14.9974 74.1187 14.0781 74.4611 13.2346C74.8082 12.3911 75.2839 11.6672 75.8976 11.0627C76.5089 10.456 77.2329 9.9848 78.0695 9.64465C78.9061 9.30909 79.8162 9.13902 80.8045 9.13902H86.4101C86.5802 9.13902 86.7433 9.17119 86.8973 9.23325C87.0513 9.2976 87.1846 9.38723 87.2995 9.50215C87.4145 9.61707 87.5064 9.75037 87.5684 9.90436C87.6328 10.0583 87.6627 10.2215 87.6627 10.3939V22.8554L87.6604 22.8577ZM60.2713 14.7469H69.0049V9.14132H71.4894V22.8577H69.0049V17.2521H60.2713V22.8577H57.7822V9.14132H60.2713V14.7469ZM55.608 22.8577H46.6376C46.4101 22.8577 46.1619 22.8324 45.8953 22.7773C45.631 22.7221 45.369 22.6394 45.1115 22.5221C44.8541 22.4072 44.6059 22.2601 44.3715 22.0786C44.1325 21.8993 43.9233 21.6764 43.744 21.4189C43.5602 21.1615 43.4177 20.8605 43.3097 20.5203C43.1993 20.1779 43.1465 19.7963 43.1465 19.3688V12.6325C43.1465 12.4049 43.1718 12.1567 43.2269 11.8924C43.2798 11.6281 43.3648 11.3661 43.4774 11.1087C43.5924 10.8513 43.7417 10.603 43.9279 10.3686C44.1141 10.1342 44.3324 9.92504 44.5944 9.74118C44.8518 9.55731 45.1506 9.41482 45.4862 9.3068C45.8263 9.19648 46.2078 9.14361 46.6353 9.14361H55.6103V11.6304H46.6376C46.3113 11.6304 46.0631 11.7154 45.893 11.8878C45.7206 12.0579 45.631 12.3153 45.631 12.6509V19.3665C45.631 19.6837 45.7183 19.9319 45.8953 20.1066C46.0722 20.279 46.3159 20.3686 46.6376 20.3686H55.6103V22.8554L55.608 22.8577Z" fill="black"/>
<path d="M201.489 10.9153V9.35938H190.317C190.199 9.35938 190.091 9.38006 189.99 9.41913C189.901 9.4582 189.82 9.51106 189.756 9.57771C189.685 9.64896 189.632 9.7317 189.586 9.83743C189.549 9.93166 189.528 10.0351 189.528 10.1454V19.5134C189.528 20.0994 189.632 20.589 189.832 20.9705C190.039 21.3658 190.298 21.6899 190.604 21.9358C190.914 22.1817 191.252 22.361 191.613 22.4667C191.994 22.5793 192.339 22.6368 192.64 22.6368H201.486V21.0808H192.661C192.169 21.0808 191.778 20.9383 191.503 20.6556C191.224 20.3775 191.084 19.9937 191.084 19.5134V17.3047C191.084 17.0174 191.319 16.783 191.606 16.783H197.304V15.2109H191.606C191.319 15.2109 191.084 14.9765 191.084 14.6892V11.4348C191.084 11.1475 191.319 10.913 191.606 10.913H201.489V10.9153Z" fill="black"/>
<path d="M174.143 12.5877C174.205 12.5624 174.27 12.5509 174.336 12.5509C174.479 12.5509 174.615 12.6083 174.713 12.7118L184.201 22.6175C184.272 22.6934 184.353 22.7462 184.435 22.7761C184.661 22.8612 184.854 22.8612 185.049 22.7761C185.15 22.7348 185.233 22.6819 185.299 22.6152C185.368 22.5463 185.424 22.4635 185.472 22.3555C185.511 22.2613 185.532 22.1556 185.532 22.0499V9.35852H183.976V18.9241C183.976 19.1379 183.847 19.3263 183.649 19.4068C183.452 19.4872 183.229 19.439 183.079 19.285L173.592 9.3861C173.479 9.27348 173.353 9.20453 173.203 9.17695C173.038 9.14477 172.891 9.15857 172.739 9.22062C172.604 9.28267 172.486 9.3815 172.392 9.5194C172.3 9.65041 172.259 9.78601 172.259 9.94689V22.6382H173.815V13.0726C173.815 12.8589 173.943 12.6681 174.141 12.59L174.143 12.5877Z" fill="black"/>
<path d="M167.315 10.7007C166.828 10.2204 166.247 9.83885 165.589 9.56765C164.928 9.29415 164.192 9.15625 163.408 9.15625H159.89C159.104 9.15625 158.368 9.29415 157.702 9.56765C157.04 9.83885 156.458 10.2204 155.976 10.6984C155.497 11.1696 155.114 11.7511 154.836 12.4245C154.562 13.091 154.422 13.8333 154.422 14.6286V17.3659C154.422 18.168 154.562 18.9103 154.836 19.5745C155.116 20.2502 155.488 20.8156 155.976 21.3006C156.46 21.7878 157.024 22.1579 157.699 22.4314C158.37 22.7026 159.106 22.8405 159.89 22.8405H163.408C164.19 22.8405 164.925 22.7026 165.592 22.4314C166.265 22.1579 166.828 21.7878 167.315 21.3006C167.796 20.8202 168.177 20.2388 168.449 19.5768C168.722 18.9103 168.86 18.168 168.86 17.3682V14.6309C168.86 13.8356 168.722 13.0956 168.449 12.4245C168.175 11.7557 167.794 11.1765 167.315 10.7007ZM167.304 17.3659C167.304 17.9404 167.21 18.4713 167.021 18.9471C166.833 19.4275 166.559 19.848 166.208 20.1974C165.865 20.5398 165.447 20.8087 164.962 20.9995C164.484 21.1857 163.953 21.2822 163.388 21.2822H159.89C159.322 21.2822 158.793 21.188 158.318 20.9995C157.835 20.8087 157.414 20.5398 157.067 20.1974C156.716 19.8503 156.442 19.4275 156.254 18.9471C156.067 18.4736 155.973 17.9404 155.973 17.3682V14.6309C155.973 14.054 156.067 13.5208 156.254 13.045C156.442 12.5647 156.716 12.1464 157.067 11.7993C157.414 11.4546 157.835 11.1857 158.318 10.9972C158.793 10.811 159.322 10.7145 159.887 10.7145H163.406C163.967 10.7145 164.491 10.8087 164.967 10.9972C165.449 11.1857 165.868 11.4569 166.215 11.8016C166.559 12.1464 166.831 12.5647 167.019 13.045C167.205 13.5208 167.302 14.054 167.302 14.6309V17.3682L167.304 17.3659Z" fill="black"/>
<path d="M140.078 22.5097C140.211 22.597 140.342 22.6384 140.494 22.6384H151.675V21.0824H143.417C143.213 21.0824 143.024 20.9606 142.942 20.7744C142.859 20.5883 142.893 20.3676 143.029 20.2137L151.599 10.6595C151.71 10.5446 151.767 10.4274 151.788 10.278C151.813 10.1125 151.797 9.97234 151.737 9.82525C151.675 9.68965 151.579 9.57932 151.441 9.48969C151.312 9.40465 151.177 9.36328 151.025 9.36328H139.823V10.9192H148.099C148.304 10.9192 148.492 11.0411 148.575 11.2272C148.658 11.4157 148.623 11.634 148.488 11.788L139.901 21.3421C139.8 21.457 139.738 21.5881 139.71 21.7443C139.687 21.8868 139.708 22.0224 139.772 22.1534C139.841 22.3074 139.938 22.42 140.076 22.5143L140.078 22.5097Z" fill="black"/>
</svg>
