<svg width="51" height="50" viewBox="0 0 51 50" fill="none" xmlns="http://www.w3.org/2000/svg">
<g opacity="0.2">
<path d="M25.3349 50C39.1469 50 50.3437 38.8071 50.3437 25C50.3437 11.1929 39.1469 0 25.3349 0C11.523 0 0.326172 11.1929 0.326172 25C0.326172 38.8071 11.523 50 25.3349 50Z" fill="url(#paint0_linear_3_3699)"/>
</g>
<path d="M34.1278 25V30.48C34.1377 31.17 33.9275 31.8452 33.5278 32.4079C33.128 32.9705 32.5595 33.3913 31.9045 33.6093C31.5639 33.7311 31.2047 33.7931 30.843 33.7924H19.8569C19.4227 33.7977 18.9918 33.7165 18.5892 33.5535C18.1867 33.3906 17.8206 33.1492 17.5124 32.8434C17.2041 32.5376 16.9598 32.1736 16.7937 31.7725C16.6276 31.3713 16.5431 30.9412 16.545 30.5071V19.4962C16.5429 18.7275 16.812 17.9828 17.3049 17.3929C17.7978 16.8029 18.4829 16.4056 19.2399 16.2708C19.4711 16.2262 19.7061 16.205 19.9416 16.2075H30.7386C31.4876 16.1947 32.2191 16.4343 32.8152 16.8877C33.4114 17.3411 33.8376 17.9819 34.0251 18.7069C34.0954 19.0122 34.1285 19.325 34.1237 19.6383C34.1265 21.4255 34.1278 23.2127 34.1278 25ZM26.0331 24.002V23.1709C26.0331 23 25.9937 22.9425 25.8129 22.9442C25.0346 22.9535 24.2581 22.9535 23.4836 22.9442C23.3045 22.9442 23.2568 22.9992 23.2568 23.1725C23.2662 25.7586 23.2708 28.3456 23.2708 30.9334C23.2708 31.0886 23.3201 31.1305 23.468 31.1305H25.8294C26.0142 31.1305 26.0496 31.0672 26.0479 30.9005V28.4775C26.0479 27.7383 26.0479 27.0032 26.066 26.2673C26.0723 26.0704 26.1194 25.8769 26.2043 25.6991C26.2891 25.5213 26.4099 25.3629 26.559 25.2341C26.7101 25.0807 26.8993 24.9702 27.1072 24.9139C27.3151 24.8577 27.5343 24.8577 27.7422 24.9139C27.9501 24.9701 28.1393 25.0806 28.2904 25.234C28.4416 25.3874 28.5492 25.5782 28.6024 25.7868C28.6861 26.114 28.7232 26.4513 28.7125 26.7889C28.7125 28.1663 28.7125 29.533 28.7125 30.9046C28.7125 31.082 28.7618 31.1313 28.9368 31.1288C29.6886 31.1288 30.4428 31.1173 31.1954 31.1288C31.4058 31.1288 31.4748 31.0853 31.4731 30.8611C31.4616 29.5124 31.4731 28.1646 31.4731 26.816C31.4835 26.377 31.4624 25.9378 31.4099 25.5018C31.3725 24.849 31.1129 24.2287 30.674 23.7438C30.2352 23.259 29.6436 22.9388 28.9976 22.8366C28.4821 22.713 27.9414 22.7468 27.4454 22.9338C26.9494 23.1208 26.521 23.4523 26.2155 23.8854C26.1998 23.9201 26.1744 23.9495 26.1423 23.9701C26.1102 23.9906 26.0729 24.0014 26.0348 24.0012L26.0331 24.002ZM21.9809 27.041V23.1832C21.9809 23 21.9316 22.9433 21.7442 22.945C20.9839 22.9543 20.2239 22.9543 19.4642 22.945C19.2908 22.945 19.2358 22.9926 19.2358 23.1692C19.2451 25.7477 19.2498 28.3248 19.2498 30.9005C19.2498 31.0738 19.2991 31.1329 19.4765 31.1305C20.2368 31.1212 20.9968 31.1212 21.7565 31.1305C21.9537 31.1305 21.9907 31.0713 21.9891 30.8906C21.9751 29.6077 21.9792 28.3223 21.9792 27.0369L21.9809 27.041ZM19.0731 20.5097C19.0719 20.6988 19.1097 20.8861 19.1843 21.0599C19.2589 21.2337 19.3685 21.3902 19.5065 21.5196C19.6444 21.649 19.8076 21.7485 19.9858 21.8119C20.1641 21.8753 20.3535 21.9012 20.5422 21.8879C20.7329 21.9018 20.9245 21.8766 21.1052 21.814C21.2858 21.7513 21.4518 21.6524 21.5929 21.5234C21.7341 21.3944 21.8474 21.2379 21.926 21.0636C22.0045 20.8893 22.0467 20.7009 22.0499 20.5097C22.0512 20.3189 22.0128 20.1299 21.937 19.9548C21.8611 19.7798 21.7496 19.6224 21.6095 19.4929C21.4694 19.3633 21.3038 19.2644 21.1232 19.2025C20.9427 19.1405 20.7512 19.1169 20.5611 19.1331C20.3715 19.1194 20.1811 19.1448 20.0017 19.2076C19.8223 19.2705 19.6578 19.3695 19.5182 19.4986C19.3787 19.6277 19.2672 19.784 19.1907 19.958C19.1141 20.1319 19.0741 20.3197 19.0731 20.5097Z" fill="black"/>
<defs>
<linearGradient id="paint0_linear_3_3699" x1="50.3437" y1="51.5936" x2="17.2919" y2="-9.22065" gradientUnits="userSpaceOnUse">
<stop stop-color="#EB212E"/>
<stop offset="1" stop-color="#FF6973"/>
</linearGradient>
</defs>
</svg>
