<svg width="51" height="50" viewBox="0 0 51 50" fill="none" xmlns="http://www.w3.org/2000/svg">
<g opacity="0.2">
<path d="M25.665 50C39.477 50 50.6738 38.8071 50.6738 25C50.6738 11.1929 39.477 0 25.665 0C11.8531 0 0.65625 11.1929 0.65625 25C0.65625 38.8071 11.8531 50 25.665 50Z" fill="url(#paint0_linear_3_3703)"/>
</g>
<path d="M25.9491 18.403C28.4449 18.403 28.7409 18.4124 29.727 18.4576C32.2602 18.5728 33.4435 19.7743 33.5587 22.2879C33.6039 23.273 33.6125 23.5689 33.6125 26.0638C33.6125 28.5595 33.6031 28.8546 33.5587 29.8396C33.4427 32.3509 32.2625 33.5547 29.727 33.67C28.7409 33.7151 28.4464 33.7245 25.9491 33.7245C23.4533 33.7245 23.1573 33.7151 22.1719 33.67C19.6325 33.554 18.4555 32.347 18.3402 29.8388C18.295 28.8538 18.2857 28.5587 18.2857 26.063C18.2857 23.5681 18.2958 23.273 18.3402 22.2871C18.4563 19.7743 19.6364 18.572 22.1719 18.4568C23.1581 18.4124 23.4533 18.403 25.9491 18.403ZM25.9491 16.7188C23.4104 16.7188 23.0926 16.7297 22.0956 16.7748C18.7009 16.9306 16.8142 18.8134 16.6584 22.21C16.6125 23.2075 16.6016 23.5253 16.6016 26.063C16.6016 28.6007 16.6125 28.9192 16.6576 29.9159C16.8134 33.3095 18.697 35.1954 22.0948 35.3512C23.0926 35.3963 23.4104 35.4072 25.9491 35.4072C28.4877 35.4072 28.8063 35.3963 29.8034 35.3512C33.195 35.1954 35.0863 33.3126 35.2397 29.9159C35.2857 28.9192 35.2966 28.6007 35.2966 26.063C35.2966 23.5253 35.2857 23.2075 35.2405 22.2108C35.0878 18.8204 33.202 16.9313 29.8042 16.7756C28.8063 16.7297 28.4877 16.7188 25.9491 16.7188ZM25.9491 21.2647C23.2983 21.2647 21.1491 23.4131 21.1491 26.063C21.1491 28.7129 23.2983 30.862 25.9491 30.862C28.5999 30.862 30.749 28.7136 30.749 26.063C30.749 23.4131 28.5999 21.2647 25.9491 21.2647ZM25.9491 29.1777C24.2284 29.1777 22.8332 27.7839 22.8332 26.063C22.8332 24.3429 24.2284 22.9482 25.9491 22.9482C27.6698 22.9482 29.0649 24.3429 29.0649 26.063C29.0649 27.7839 27.6698 29.1777 25.9491 29.1777ZM30.9391 19.9542C30.319 19.9542 29.8166 20.4564 29.8166 21.0755C29.8166 21.6946 30.319 22.1968 30.9391 22.1968C31.5584 22.1968 32.06 21.6946 32.06 21.0755C32.06 20.4564 31.5584 19.9542 30.9391 19.9542Z" fill="black"/>
<defs>
<linearGradient id="paint0_linear_3_3703" x1="50.6738" y1="51.5936" x2="17.6219" y2="-9.22065" gradientUnits="userSpaceOnUse">
<stop stop-color="#EB212E"/>
<stop offset="1" stop-color="#FF6973"/>
</linearGradient>
</defs>
</svg>
