<svg width="51" height="50" viewBox="0 0 51 50" fill="none" xmlns="http://www.w3.org/2000/svg">
<g opacity="0.2">
<path d="M25.0088 50C38.8207 50 50.0175 38.8071 50.0175 25C50.0175 11.1929 38.8207 0 25.0088 0C11.1968 0 0 11.1929 0 25C0 38.8071 11.1968 50 25.0088 50Z" fill="url(#paint0_linear_3_3694)"/>
</g>
<path d="M15.2324 30.8947C17.2872 31.1293 19.3524 30.5538 20.9896 29.2907C19.9244 29.2123 18.9296 28.7294 18.2092 27.9412C17.8167 27.5196 17.5258 27.0139 17.3588 26.4628C17.9163 26.5409 18.4832 26.5198 19.0333 26.4004C18.1466 26.1795 17.3603 25.6663 16.8014 24.9436C16.2425 24.221 15.9436 23.3311 15.953 22.4177C16.4988 22.6805 17.0891 22.839 17.6932 22.885C16.8679 22.2944 16.2896 21.4203 16.0688 20.43C15.8511 19.4385 16.0129 18.4014 16.5224 17.5233C17.5324 18.7578 18.7882 19.7688 20.21 20.4922C21.6318 21.2155 23.1886 21.6355 24.7814 21.7253C24.751 21.5027 24.714 21.3048 24.6992 21.1052C24.6282 20.0552 24.9698 19.019 25.6514 18.217C26.3331 17.415 27.3009 16.9106 28.3489 16.8112C28.9243 16.7498 29.5062 16.8165 30.0528 17.0063C30.5994 17.1962 31.0972 17.5045 31.5105 17.9093C31.5603 17.9618 31.6239 17.999 31.694 18.0168C31.7641 18.0345 31.8378 18.032 31.9066 18.0095C32.6323 17.8398 33.3314 17.5718 33.9845 17.2128C34.0395 17.1824 34.097 17.1537 34.1537 17.1307H34.2211C33.9382 17.9949 33.3827 18.7442 32.6378 19.2662C33.3602 19.1667 34.0698 18.9899 34.7543 18.7389C34.6144 18.9517 34.4601 19.1548 34.2926 19.3467C33.8448 19.8009 33.3798 20.2378 32.9106 20.6731C32.8639 20.7069 32.8263 20.7517 32.8014 20.8037C32.7764 20.8556 32.7648 20.9129 32.7676 20.9705C32.828 23.1197 32.2804 25.2424 31.1876 27.0944C30.2222 28.8263 28.8046 30.2639 27.0861 31.2537C25.6002 32.0982 23.9398 32.5897 22.2335 32.6902C20.7896 32.7977 19.3383 32.6356 17.9537 32.2122C17.0327 31.9291 16.1527 31.5271 15.3359 31.0163C15.3006 30.9949 15.2702 30.9678 15.2357 30.9448L15.2324 30.8947Z" fill="black"/>
<defs>
<linearGradient id="paint0_linear_3_3694" x1="50.0175" y1="51.5936" x2="16.9657" y2="-9.22065" gradientUnits="userSpaceOnUse">
<stop stop-color="#EB212E"/>
<stop offset="1" stop-color="#FF6973"/>
</linearGradient>
</defs>
</svg>
