<svg width="436" height="67" viewBox="0 0 436 67" fill="none" xmlns="http://www.w3.org/2000/svg">
<path d="M36.3213 19.7036L36.1544 19.5859C36.2303 19.6618 36.2948 19.7074 36.3213 19.7036Z" fill="#EB212E"/>
<path d="M38.0225 45.184L38.1894 45.0664C38.0908 45.1119 38.0263 45.1537 38.0225 45.184Z" fill="#EB212E"/>
<path d="M55.0857 30.9051C62.2616 25.9875 62.5575 24.0587 56.3141 19.3696C46.2393 11.8004 39.4678 10.0288 32.584 7.24609C41.7936 12.3696 54.0782 20.3509 53.0482 25.98C51.4115 34.9013 35.9997 39.0698 35.9997 39.0698C36.2244 39.0548 38.76 38.6016 41.4079 37.4481C43.0745 36.7253 50.5351 34.0249 55.0894 30.9051H55.0857Z" fill="#EB212E"/>
<path d="M22.859 2.22608C22.859 2.22608 27.196 4.24854 32.5818 7.24477C39.4656 10.0275 46.2371 11.799 56.3119 19.3683C62.5553 24.0611 62.2594 25.9899 55.0835 30.9038C50.5254 34.0273 43.0686 36.7239 41.4019 37.4468C38.754 38.5966 36.2184 39.0497 35.9937 39.0685C34.8065 39.1509 33.6642 38.9224 32.5555 38.5516C31.5968 38.2333 30.6492 37.8887 29.6455 37.7239C29.1286 37.6378 28.6193 37.6528 28.1099 37.825C27.6155 37.9936 27.1137 38.1434 26.6155 38.3044C26.5294 38.3307 26.447 38.3681 26.3721 38.4168C26.1212 38.5816 26.0687 38.7239 26.1511 39.0086C26.2635 39.4018 26.3796 39.7913 26.4957 40.1808C26.5406 40.3306 26.5856 40.4842 26.6342 40.6527C26.5369 40.6827 26.462 40.7089 26.3908 40.7314C25.1736 41.1209 23.9526 41.5104 22.7354 41.8999C22.5444 41.9598 22.3609 42.031 22.2335 42.2033C22.0238 42.4879 22.0088 42.84 22.2036 43.1209C22.3834 43.383 22.7167 43.4879 23.0538 43.383C24.1249 43.0422 25.1961 42.7014 26.2672 42.3606C26.5219 42.2782 26.7803 42.1958 27.0462 42.1097C27.6155 44.0535 28.1773 45.9785 28.7466 47.9261C28.6717 47.9486 28.6043 47.971 28.5369 47.9935C27.2784 48.3942 26.0163 48.795 24.7579 49.1995C24.226 49.3718 24.0163 49.971 24.3309 50.3942C24.5294 50.6676 24.8627 50.75 25.2597 50.6227C26.4919 50.2294 27.7204 49.8362 28.9526 49.4429C29.02 49.4204 29.0874 49.398 29.1811 49.368C29.2073 49.4579 29.226 49.5216 29.2447 49.5815C29.387 50.0759 29.5406 50.5665 29.6754 51.0646C29.7279 51.2631 29.8515 51.3717 30.0425 51.3905C30.1735 51.4055 30.3196 51.4017 30.4432 51.3643C30.99 51.1995 31.5406 51.0422 32.0724 50.8399C32.372 50.7276 32.6604 50.559 32.9151 50.368C33.5031 49.9223 33.9563 49.3455 34.4095 48.7725C34.9413 48.0984 35.4394 47.4017 35.9975 46.7501C36.548 46.1059 38.0274 45.1433 38.0199 45.1733C38.0237 45.1433 38.0911 45.1059 38.1847 45.0572C38.4694 44.9224 39.0312 44.7426 39.1136 44.7089C42.4281 43.3194 45.754 41.9673 49.0198 40.4655C52.4543 38.885 55.8625 37.1734 59.0048 35.0573C61.383 33.458 64.0459 31.4618 65.1957 28.7352C65.383 28.2895 65.5253 27.8214 65.5927 27.3382C67.398 14.6829 33.1211 4.07625 22.859 2.21484V2.22608Z" fill="#EB212E"/>
<path d="M16.9714 8.71974C9.85532 3.71978 7.94148 4.11678 5.73551 11.6111C2.17374 23.7009 2.88535 30.6634 2.69434 38.0865C4.26736 27.6634 7.43961 13.3639 13.0725 12.3564C22.0013 10.7647 31.3046 23.7421 31.3046 23.7421C31.211 23.5361 29.9001 21.3226 27.8926 19.244C26.6305 17.9369 21.4919 11.8957 16.9714 8.71974Z" fill="#EB212E"/>
<path d="M45.8889 29.7466C45.0912 28.7316 44.2897 27.7166 43.4882 26.7016C43.4433 26.6455 43.4021 26.5893 43.3384 26.5144C43.4133 26.4582 43.4657 26.4207 43.5182 26.3795C43.9302 26.0724 44.3384 25.7578 44.7541 25.4582C44.9227 25.3384 44.9788 25.1848 44.9339 25.0013C44.9002 24.8739 44.8478 24.7391 44.7691 24.6342C44.4245 24.1811 44.0837 23.7204 43.7092 23.2897C43.4994 23.05 43.241 22.8365 42.9714 22.6642C42.3496 22.271 41.6493 22.0462 40.9527 21.8215C40.1362 21.5594 39.3085 21.3384 38.5032 21.0425C37.7092 20.7504 36.286 19.7054 36.3197 19.698C36.2898 19.7017 36.2299 19.6568 36.1549 19.5818C35.9265 19.3609 35.5632 18.9002 35.5033 18.8365C33.0426 16.2186 30.6119 13.5744 28.0614 11.0426C25.376 8.37969 22.582 5.78795 19.4996 3.58572C17.1663 1.92656 14.3649 0.128823 11.4061 0.00522854C10.9229 -0.0134979 10.4323 0.0164644 9.9604 0.121332C-2.52639 2.86288 -0.455253 38.6866 1.39866 48.9487C1.39866 48.9487 1.7732 44.1809 2.69454 38.0836C2.8893 30.6604 2.17395 23.6979 5.73571 11.6081C7.94169 4.11381 9.85553 3.72055 16.9716 8.71677C21.4921 11.8928 26.6307 17.9302 27.8928 19.241C29.8966 21.3197 31.2112 23.5331 31.3048 23.7391C31.7954 24.8215 31.9864 25.9751 32.0276 27.1398C32.0651 28.1473 32.0763 29.1586 32.2711 30.1548C32.3722 30.6679 32.5632 31.1398 32.9003 31.5593C33.2299 31.9638 33.5482 32.3795 33.8703 32.7915C33.9265 32.8626 33.9902 32.9263 34.0613 32.9825C34.3048 33.1623 34.4546 33.1585 34.6943 32.9825C35.0201 32.739 35.346 32.4919 35.6718 32.2484C35.7991 32.1548 35.9227 32.0611 36.0651 31.9525C36.1287 32.0349 36.1774 32.0949 36.2224 32.1548C37.0164 33.1585 37.8066 34.166 38.6006 35.1697C38.7242 35.327 38.8553 35.4731 39.0613 35.533C39.4021 35.6304 39.7354 35.518 39.9302 35.2409C40.1137 34.9787 40.095 34.6304 39.8778 34.3533C39.1849 33.4694 38.4883 32.5855 37.7916 31.7053C37.6268 31.4956 37.4583 31.2821 37.286 31.0612C38.9077 29.8477 40.5145 28.6454 42.1399 27.432C42.1886 27.4956 42.2335 27.5481 42.2747 27.6043C43.0912 28.6417 43.9077 29.6829 44.7279 30.7203C45.0725 31.1585 45.7092 31.1436 45.9976 30.7016C46.1848 30.417 46.1436 30.0799 45.8852 29.7503L45.8889 29.7466Z" fill="#EB212E"/>
<path d="M13.1068 53.9019C12.7585 62.591 14.1255 63.9843 21.6198 61.782C33.7133 58.2315 39.1815 53.8645 45.526 50.0068C35.9118 54.3252 22.1666 59.4 18.2753 55.2091C12.103 48.5649 17.9756 33.7148 17.9756 33.7148C17.852 33.9059 16.7022 36.2055 16.0393 39.0182C15.6236 40.7897 13.3277 48.3814 13.103 53.8982L13.1068 53.9019Z" fill="#EB212E"/>
<path d="M15.1327 18.2042C14.7132 19.4252 14.2938 20.6462 13.8705 21.8709C13.8481 21.9383 13.8256 22.0057 13.7919 22.0993C13.702 22.0656 13.6421 22.0432 13.5822 22.0207C13.099 21.8409 12.6159 21.6686 12.1365 21.4776C11.9455 21.4027 11.7844 21.4364 11.6533 21.575C11.5634 21.6724 11.481 21.7885 11.4324 21.9121C11.2376 22.4476 11.0354 22.9832 10.8781 23.53C10.7919 23.8371 10.7507 24.1705 10.7507 24.4888C10.7545 25.2266 10.9455 25.9345 11.1327 26.6424C11.3537 27.4701 11.6159 28.2865 11.8031 29.1217C11.9904 29.9495 11.878 31.7097 11.8556 31.6835C11.8743 31.706 11.8706 31.7809 11.8481 31.8858C11.7844 32.1966 11.5934 32.7547 11.5747 32.8371C10.7058 36.3239 9.79941 39.7996 9.05409 43.3126C8.26758 47.0092 7.60092 50.7658 7.41741 54.5485C7.27883 57.4099 7.28632 60.7395 8.78443 63.2937C9.03162 63.7132 9.32001 64.1027 9.66458 64.4473C18.7282 73.4622 47.7279 52.3275 55.3533 45.2152C55.3533 45.2152 51.1399 47.4811 45.5182 50.0055C39.1737 53.8594 33.7056 58.2301 21.612 61.7806C14.1177 63.9829 12.7507 62.5896 13.099 53.9006C13.32 48.3838 15.6158 40.7883 16.0353 39.0205C16.6982 36.2078 17.848 33.9082 17.9716 33.7172C18.6158 32.7172 19.481 31.9345 20.4398 31.2678C21.2675 30.691 22.1102 30.1367 22.8442 29.4289C23.2225 29.0656 23.5146 28.6498 23.6832 28.1405C23.8442 27.6424 24.024 27.1517 24.1926 26.6573C24.2225 26.5712 24.2412 26.4813 24.2487 26.3952C24.2675 26.0956 24.1851 25.9682 23.9079 25.8633C23.5259 25.721 23.1439 25.5787 22.7618 25.4364C22.6158 25.3802 22.466 25.3278 22.3012 25.2641C22.3349 25.1667 22.3611 25.0956 22.3836 25.0207C22.7993 23.8109 23.215 22.6012 23.6308 21.3877C23.6944 21.1967 23.7469 21.0095 23.6869 20.8035C23.5858 20.4664 23.3087 20.2454 22.9678 20.2304C22.6495 20.2192 22.3648 20.4214 22.2487 20.7585C21.8817 21.8184 21.5147 22.8821 21.1476 23.9458C21.0615 24.2004 20.9716 24.4551 20.8817 24.721C18.9829 24.0132 17.1027 23.3128 15.2039 22.6049C15.2301 22.53 15.2526 22.4626 15.275 22.399C15.7057 21.148 16.1402 19.9008 16.5671 18.6499C16.7469 18.1218 16.3911 17.5975 15.863 17.5938C15.526 17.5938 15.26 17.8072 15.1252 18.2005L15.1327 18.2042Z" fill="#EB212E"/>
<path d="M431.171 23.8367C430.484 23.8367 429.844 23.7221 429.257 23.4883C428.67 23.2545 428.165 22.93 427.735 22.5196C427.306 22.1093 426.972 21.6226 426.733 21.0595C426.494 20.4964 426.375 19.8856 426.375 19.2224C426.375 18.5591 426.494 17.9626 426.733 17.3996C426.972 16.8365 427.306 16.3545 427.735 15.949C428.165 15.5434 428.67 15.2189 429.257 14.9851C429.844 14.7512 430.479 14.6367 431.171 14.6367C431.863 14.6367 432.497 14.756 433.089 14.9851C433.681 15.2189 434.191 15.5386 434.625 15.949C435.06 16.3593 435.398 16.8413 435.637 17.3996C435.876 17.9579 436 18.5686 436 19.2224C436 19.8761 435.88 20.4964 435.637 21.0595C435.394 21.6226 435.055 22.1045 434.625 22.5196C434.191 22.93 433.681 23.2545 433.089 23.4883C432.497 23.7221 431.858 23.8367 431.171 23.8367ZM431.171 23.2116C431.748 23.2116 432.287 23.1161 432.788 22.9205C433.289 22.7248 433.724 22.4528 434.096 22.1045C434.468 21.7562 434.754 21.3363 434.969 20.8495C435.184 20.3628 435.289 19.8284 435.289 19.251C435.289 18.6736 435.184 18.1678 434.979 17.6859C434.769 17.2039 434.482 16.7792 434.12 16.4261C433.752 16.0682 433.323 15.7867 432.822 15.5863C432.321 15.3811 431.772 15.2809 431.176 15.2809C430.579 15.2809 430.035 15.3811 429.539 15.5863C429.043 15.7915 428.613 16.0682 428.25 16.4261C427.888 16.784 427.606 17.1991 427.401 17.6811C427.196 18.163 427.096 18.6784 427.096 19.2271C427.096 19.7759 427.196 20.3103 427.401 20.7923C427.606 21.2742 427.888 21.6989 428.25 22.0616C428.613 22.4242 429.043 22.7057 429.539 22.9109C430.035 23.1161 430.579 23.2163 431.176 23.2163L431.171 23.2116ZM429.105 16.407H431.591C431.844 16.407 432.082 16.4643 432.306 16.574C432.526 16.6838 432.717 16.827 432.874 17.0083C433.032 17.1848 433.156 17.3852 433.246 17.6095C433.337 17.829 433.38 18.0533 433.38 18.2823C433.38 18.6307 433.285 18.9599 433.099 19.2653C432.912 19.5707 432.664 19.7854 432.359 19.9047L433.671 22.0186H432.306L431.133 20.1338H430.317V22.0186H429.105V16.4118V16.407ZM431.486 19.084C431.7 19.084 431.867 19.0124 431.991 18.874C432.116 18.7356 432.178 18.5352 432.178 18.2823C432.178 18.0103 432.106 17.8099 431.968 17.6763C431.829 17.5427 431.657 17.4807 431.462 17.4807H430.317V19.084H431.49H431.486Z" fill="black"/>
<path d="M279.64 47.4474H261.011C260.3 47.4474 259.518 47.3186 258.673 47.0657C257.824 46.8128 257.041 46.4024 256.316 45.825C255.595 45.2476 254.994 44.5033 254.512 43.5823C254.025 42.6614 253.787 41.5352 253.787 40.1991V21.5702C253.787 21.2123 253.854 20.8735 253.982 20.5538C254.116 20.2341 254.293 19.9574 254.531 19.7188C254.76 19.4802 255.032 19.2989 255.352 19.1605C255.672 19.0317 256.015 18.9648 256.387 18.9648H279.635V24.1279H258.945V40.1944C258.945 40.8672 259.122 41.3825 259.48 41.7404C259.833 42.0983 260.362 42.2748 261.045 42.2748H279.631V47.4379L279.64 47.4474ZM277.316 35.8091H261.016V30.6079H277.316V35.8091ZM248.934 44.8468C248.934 45.219 248.867 45.5673 248.738 45.8823C248.605 46.1924 248.419 46.474 248.19 46.703C247.961 46.9321 247.679 47.1182 247.364 47.2518C247.054 47.3806 246.706 47.4474 246.333 47.4474H227.704C227.232 47.4474 226.717 47.3949 226.163 47.2804C225.614 47.1659 225.07 46.9941 224.536 46.7507C224.002 46.5122 223.486 46.2068 222.999 45.8298C222.503 45.4576 222.069 44.9947 221.697 44.4603C221.315 43.9259 221.019 43.3008 220.795 42.5946C220.566 41.8836 220.456 41.0914 220.456 40.2039V26.2179C220.456 25.7455 220.509 25.2302 220.628 24.6814C220.738 24.1326 220.914 23.5887 221.148 23.0542C221.387 22.5198 221.697 22.0045 222.083 21.5177C222.47 21.031 222.923 20.5968 223.467 20.215C224.002 19.8333 224.622 19.5375 225.319 19.3132C226.025 19.0841 226.817 18.9744 227.704 18.9744H248.695V24.1374H227.704C227.027 24.1374 226.511 24.314 226.158 24.6719C225.8 25.025 225.614 25.5594 225.614 26.2561V40.1991C225.614 40.8576 225.796 41.373 226.163 41.7356C226.531 42.0935 227.036 42.2796 227.704 42.2796H243.771V35.8044H230.033V30.6031H246.333C246.706 30.6031 247.054 30.67 247.364 30.8083C247.684 30.9515 247.961 31.1423 248.19 31.3762C248.419 31.6148 248.605 31.8915 248.738 32.1969C248.867 32.5071 248.934 32.8459 248.934 33.199V44.8373V44.8468ZM215.651 28.5465C215.651 29.7251 215.503 30.7749 215.212 31.7054C214.921 32.6264 214.53 33.4471 214.033 34.1581C213.537 34.8643 212.964 35.4656 212.311 35.9761C211.667 36.4772 210.989 36.8923 210.278 37.2168C209.572 37.5413 208.856 37.7703 208.135 37.923C207.41 38.0662 206.733 38.1377 206.093 38.1377L216.877 47.4522H208.899L198.134 38.1377H194.421V32.9747H206.093C206.742 32.9222 207.339 32.7838 207.878 32.5691C208.412 32.3544 208.875 32.0585 209.266 31.6863C209.653 31.3141 209.958 30.8656 210.168 30.3455C210.378 29.8254 210.488 29.2289 210.488 28.5513V25.2922C210.488 25.0011 210.455 24.7816 210.378 24.6289C210.302 24.481 210.206 24.3665 210.101 24.2949C209.987 24.2185 209.872 24.1708 209.744 24.1613C209.615 24.1565 209.5 24.147 209.4 24.147H192.36V47.457H187.197V21.5845C187.197 21.2267 187.264 20.8879 187.402 20.5682C187.531 20.2484 187.712 19.9717 187.946 19.7331C188.175 19.4945 188.457 19.3132 188.772 19.1748C189.091 19.046 189.43 18.9792 189.802 18.9792H209.405C210.555 18.9792 211.528 19.1891 212.32 19.6043C213.122 20.0242 213.766 20.5491 214.258 21.1789C214.754 21.804 215.112 22.4816 215.326 23.2117C215.551 23.937 215.661 24.6241 215.661 25.2588V28.5513L215.651 28.5465ZM158.691 35.2985H176.842V24.1422H167.766C167.604 24.1422 167.27 24.1613 166.764 24.209C166.254 24.2567 165.667 24.3712 164.994 24.5526C164.331 24.7339 163.625 25.0202 162.88 25.4067C162.141 25.7932 161.458 26.3229 160.833 26.9909C160.218 27.6685 159.702 28.5179 159.297 29.5247C158.896 30.5363 158.695 31.7674 158.695 33.2037V35.2938L158.691 35.2985ZM182.001 47.4522H176.842V40.4616H158.691V47.4522H153.528V33.2085C153.528 31.1328 153.885 29.2241 154.596 27.4729C155.317 25.7216 156.305 24.2185 157.579 22.9636C158.848 21.7038 160.351 20.7256 162.088 20.0194C163.825 19.3227 165.715 18.9696 167.766 18.9696H179.405C179.758 18.9696 180.097 19.0364 180.416 19.1653C180.736 19.2989 181.013 19.485 181.251 19.7236C181.49 19.9621 181.681 20.2389 181.81 20.5586C181.943 20.8783 182.005 21.2171 182.005 21.575V47.4474L182.001 47.4522ZM125.136 30.6127H143.268V18.9744H148.427V47.4522H143.268V35.8139H125.136V47.4522H119.968V18.9744H125.136V30.6127ZM115.454 47.4522H96.8296C96.3572 47.4522 95.8418 47.3997 95.2883 47.2852C94.7396 47.1707 94.1956 46.9989 93.6611 46.7555C93.1267 46.5169 92.6114 46.2115 92.1246 45.8346C91.6284 45.4624 91.1941 44.9995 90.8219 44.4651C90.4402 43.9306 90.1444 43.3056 89.9201 42.5993C89.691 41.8883 89.5813 41.0962 89.5813 40.2087V26.2227C89.5813 25.7503 89.6338 25.2349 89.7483 24.6862C89.8581 24.1374 90.0346 23.5934 90.2684 23.059C90.507 22.5246 90.8172 22.0092 91.2037 21.5225C91.5902 21.0358 92.0435 20.6016 92.5875 20.2198C93.1219 19.8381 93.7423 19.5422 94.4389 19.318C95.1452 19.0889 95.9373 18.9792 96.8248 18.9792H115.458V24.1422H96.8296C96.152 24.1422 95.6366 24.3187 95.2835 24.6766C94.9257 25.0297 94.7396 25.5642 94.7396 26.2609V40.2039C94.7396 40.8624 94.9209 41.3778 95.2883 41.7404C95.6557 42.0983 96.1615 42.2844 96.8296 42.2844H115.458V47.4474L115.454 47.4522Z" fill="black"/>
<path d="M418.33 22.6523V19.4219H395.135C394.892 19.4219 394.667 19.4648 394.457 19.5459C394.271 19.6271 394.104 19.7368 393.971 19.8752C393.823 20.0231 393.713 20.1949 393.618 20.4144C393.541 20.61 393.498 20.8248 393.498 21.0538V40.5035C393.498 41.7203 393.713 42.7366 394.128 43.5288C394.558 44.3495 395.097 45.0223 395.731 45.5329C396.376 46.0435 397.077 46.4157 397.826 46.6352C398.618 46.869 399.334 46.9883 399.959 46.9883H418.326V43.7578H400.002C398.981 43.7578 398.17 43.462 397.597 42.875C397.02 42.2976 396.729 41.5008 396.729 40.5035V35.9178C396.729 35.3213 397.215 34.8346 397.812 34.8346H409.641V31.5707H397.812C397.215 31.5707 396.729 31.084 396.729 30.4876V23.7308C396.729 23.1343 397.215 22.6476 397.812 22.6476H418.33V22.6523Z" fill="black"/>
<path d="M361.556 26.1279C361.685 26.0754 361.818 26.0515 361.957 26.0515C362.252 26.0515 362.534 26.1708 362.739 26.3855L382.437 46.9518C382.585 47.1093 382.752 47.219 382.924 47.281C383.391 47.4576 383.792 47.4576 384.198 47.281C384.408 47.1952 384.579 47.0854 384.718 46.947C384.861 46.8039 384.975 46.6321 385.076 46.4078C385.157 46.2122 385.2 45.9927 385.2 45.7732V19.4236H381.969V39.2836C381.969 39.7274 381.702 40.1186 381.292 40.2857C380.881 40.4527 380.418 40.3525 380.108 40.0328L360.41 19.4808C360.177 19.247 359.914 19.1038 359.604 19.0466C359.26 18.9798 358.955 19.0084 358.64 19.1373C358.359 19.2661 358.115 19.4713 357.92 19.7576C357.729 20.0296 357.643 20.3111 357.643 20.6451V46.9947H360.873V27.1347C360.873 26.6909 361.141 26.2949 361.551 26.1326L361.556 26.1279Z" fill="black"/>
<path d="M347.379 22.2105C346.368 21.2132 345.16 20.4211 343.796 19.858C342.421 19.2902 340.894 19.0039 339.267 19.0039H331.962C330.33 19.0039 328.803 19.2902 327.419 19.858C326.045 20.4211 324.837 21.2132 323.835 22.2058C322.843 23.184 322.046 24.3912 321.469 25.7893C320.901 27.1731 320.61 28.7144 320.61 30.3654V36.0486C320.61 37.7139 320.901 39.2552 321.469 40.6343C322.051 42.0372 322.824 43.211 323.835 44.2178C324.842 45.2295 326.011 45.9977 327.414 46.5655C328.807 47.1286 330.334 47.4149 331.962 47.4149H339.267C340.89 47.4149 342.417 47.1286 343.8 46.5655C345.198 45.9977 346.368 45.2295 347.379 44.2178C348.376 43.2205 349.169 42.0133 349.732 40.639C350.299 39.2552 350.586 37.7139 350.586 36.0534V30.3702C350.586 28.7192 350.299 27.1827 349.732 25.7893C349.164 24.4008 348.372 23.1983 347.379 22.2105ZM347.355 36.0486C347.355 37.2415 347.16 38.3438 346.768 39.3316C346.377 40.3289 345.809 41.2021 345.079 41.9274C344.368 42.6384 343.5 43.1967 342.493 43.5927C341.5 43.9793 340.398 44.1797 339.224 44.1797H331.962C330.783 44.1797 329.685 43.984 328.698 43.5927C327.696 43.1967 326.822 42.6384 326.102 41.9274C325.372 41.2069 324.804 40.3289 324.413 39.3316C324.026 38.3486 323.831 37.2415 323.831 36.0534V30.3702C323.831 29.1725 324.026 28.0655 324.413 27.0777C324.804 26.0804 325.372 25.212 326.102 24.4914C326.822 23.7757 327.696 23.2174 328.698 22.8261C329.685 22.4396 330.783 22.2392 331.957 22.2392H339.262C340.427 22.2392 341.515 22.4348 342.502 22.8261C343.504 23.2174 344.373 23.7804 345.093 24.4962C345.809 25.212 346.372 26.0804 346.764 27.0777C347.15 28.0655 347.35 29.1725 347.35 30.3702V36.0534L347.355 36.0486Z" fill="black"/>
<path d="M290.829 46.728C291.106 46.9093 291.378 46.9952 291.693 46.9952H314.908V43.7648H297.763C297.338 43.7648 296.947 43.5118 296.775 43.1253C296.603 42.7388 296.675 42.2807 296.956 41.961L314.75 22.1249C314.979 21.8863 315.099 21.6429 315.142 21.3328C315.194 20.9892 315.161 20.6981 315.037 20.3927C314.908 20.1112 314.707 19.8821 314.421 19.696C314.154 19.5195 313.872 19.4336 313.557 19.4336H290.3V22.6641H307.483C307.908 22.6641 308.299 22.917 308.471 23.3035C308.642 23.6948 308.571 24.1481 308.289 24.4678L290.462 44.304C290.252 44.5425 290.123 44.8145 290.066 45.139C290.018 45.4349 290.061 45.7164 290.195 45.9884C290.338 46.3081 290.538 46.5419 290.825 46.7376L290.829 46.728Z" fill="black"/>
</svg>
