<svg width="47" height="39" viewBox="0 0 47 39" fill="none" xmlns="http://www.w3.org/2000/svg">
<path d="M23.7514 5.2474L23.8383 5.45C18.9206 11.014 13.6594 16.1434 6.6372 18.8571C7.44688 18.8571 8.3478 18.8788 9.24721 18.8529C12.6226 18.7561 15.998 18.6426 19.3734 18.5374L29.394 18.2206L35.9674 18.0103C38.1939 17.9397 40.4204 17.8696 42.6474 17.7999C42.9852 17.7887 43.1809 17.8876 43.1724 18.2759C43.1563 19.0716 43.1626 19.8673 43.1724 20.6636C43.1724 20.9812 43.0408 21.1088 42.7225 21.0884C42.1224 21.0501 41.522 21.0216 40.9215 21.0029C37.1037 20.8887 33.286 20.7849 29.4682 20.6664C25.2621 20.5356 21.0559 20.3979 16.8498 20.2535C14.8351 20.1834 12.8209 20.0986 10.8062 20.0544C9.35158 20.0229 7.89562 20.0481 6.67023 20.0481C13.6293 22.7015 18.9031 27.8632 23.8012 33.5309C22.6431 33.6214 21.5305 33.5877 20.4215 33.6347C20.1803 33.6596 19.9372 33.6107 19.7244 33.4944C19.5116 33.3781 19.3391 33.1999 19.2298 32.9834C17.5611 30.3521 15.5791 27.933 13.3277 25.779C10.4577 23.0618 7.24705 20.9356 3.33112 20.0446C2.96449 19.9612 2.91056 19.7558 2.89795 19.4403C2.87972 19.0632 3.04168 18.9069 3.39359 18.8297C5.63885 18.3091 7.76569 17.3697 9.66276 16.0607C13.3494 13.4982 16.4821 10.2192 18.8736 6.41951C19.0696 6.00597 19.3937 5.66667 19.7978 5.45198C20.202 5.23728 20.6645 5.15865 21.1169 5.22777C21.9939 5.2843 22.8736 5.29085 23.7514 5.2474Z" fill="#171B18"/>
<path d="M23.7514 5.24809C22.8738 5.29129 21.9944 5.28451 21.1176 5.22777C20.6652 5.15865 20.2026 5.23728 19.7985 5.45198C19.3944 5.66667 19.0703 6.00597 18.8743 6.41951C16.4828 10.2192 13.3502 13.4982 9.66361 16.0607C7.76654 17.3697 5.63954 18.3091 3.39427 18.8297C3.04376 18.9076 2.8804 19.0632 2.89863 19.4403C2.91405 19.7565 2.96464 19.9612 3.33198 20.0446C7.2479 20.9356 10.4591 23.059 13.3284 25.779C15.5798 27.933 17.5617 30.3521 19.2305 32.9834C19.3398 33.1999 19.5123 33.3781 19.7251 33.4944C19.9379 33.6107 20.181 33.6596 20.4222 33.6347C21.5312 33.5877 22.6438 33.6207 23.8018 33.5309C18.9038 27.8624 13.63 22.7015 6.67023 20.0481C7.89632 20.0481 9.35228 20.0229 10.8062 20.0544C12.8209 20.0986 14.8351 20.1862 16.8498 20.2535C21.0559 20.3937 25.2621 20.5314 29.4682 20.6664C33.286 20.7856 37.1037 20.8893 40.9215 21.0029C41.522 21.0207 42.1224 21.0492 42.7225 21.0884C43.0408 21.1088 43.1752 20.9812 43.1724 20.6636C43.1654 19.868 43.1591 19.0716 43.1724 18.2759C43.1809 17.8876 42.9852 17.7852 42.6474 17.7999C40.4209 17.8728 38.1943 17.9429 35.9674 18.0102L29.394 18.2206L19.3734 18.5374C15.998 18.644 12.6226 18.7561 9.24721 18.8529C8.3478 18.8788 7.44618 18.8571 6.63719 18.8571C13.6594 16.1434 18.9199 11.0147 23.8383 5.45L23.7514 5.24809Z" fill="#171B18"/>
</svg>
