<svg width="47" height="39" viewBox="0 0 47 39" fill="none" xmlns="http://www.w3.org/2000/svg">
<path d="M23.2448 5.2474L23.1578 5.45C28.0755 11.014 33.3368 16.1434 40.3589 18.8571C39.5492 18.8571 38.6483 18.8788 37.7489 18.8529C34.3735 18.7561 30.9982 18.6426 27.6227 18.5374L17.6022 18.2206L11.0287 18.0103C8.80224 17.9397 6.57569 17.8696 4.34877 17.7999C4.01088 17.7887 3.81527 17.8876 3.82369 18.2759C3.83981 19.0716 3.8335 19.8673 3.82369 20.6636C3.82369 20.9812 3.95537 21.1088 4.27364 21.0884C4.87371 21.0501 5.47409 21.0216 6.07463 21.0029C9.89241 20.8887 13.7101 20.7849 17.5279 20.6664C21.734 20.5356 25.9402 20.3979 30.1463 20.2535C32.1611 20.1834 34.1752 20.0986 36.1899 20.0544C37.6445 20.0229 39.1005 20.0481 40.3259 20.0481C33.3668 22.7015 28.093 27.8632 23.195 33.5309C24.353 33.6214 25.4656 33.5877 26.5746 33.6347C26.8159 33.6596 27.0589 33.6107 27.2717 33.4944C27.4845 33.3781 27.657 33.1999 27.7663 32.9834C29.4351 30.3521 31.417 27.933 33.6684 25.779C36.5384 23.0618 39.7491 20.9356 43.665 20.0446C44.0316 19.9612 44.0856 19.7558 44.0982 19.4403C44.1164 19.0632 43.9544 18.9069 43.6025 18.8297C41.3573 18.3091 39.2304 17.3697 37.3334 16.0607C33.6467 13.4982 30.5141 10.2192 28.1225 6.41951C27.9265 6.00597 27.6024 5.66667 27.1983 5.45198C26.7942 5.23728 26.3316 5.15865 25.8793 5.22777C25.0022 5.2843 24.1226 5.29085 23.2448 5.2474Z" fill="#171B18"/>
<path d="M23.2448 5.24809C24.1224 5.29129 25.0017 5.28451 25.8786 5.22777C26.3309 5.15865 26.7935 5.23728 27.1976 5.45198C27.6017 5.66667 27.9259 6.00597 28.1218 6.41951C30.5134 10.2192 33.6459 13.4982 37.3325 16.0607C39.2296 17.3697 41.3566 18.3091 43.6019 18.8297C43.9524 18.9076 44.1157 19.0632 44.0975 19.4403C44.0821 19.7565 44.0315 19.9612 43.6641 20.0446C39.7482 20.9356 36.537 23.059 33.6677 25.779C31.4163 27.933 29.4344 30.3521 27.7657 32.9834C27.6563 33.1999 27.4838 33.3781 27.271 33.4944C27.0582 33.6107 26.8152 33.6596 26.5739 33.6347C25.4649 33.5877 24.3524 33.6207 23.1943 33.5309C28.0923 27.8624 33.3661 22.7015 40.3259 20.0481C39.0998 20.0481 37.6438 20.0229 36.1899 20.0544C34.1752 20.0986 32.1611 20.1862 30.1463 20.2535C25.9402 20.3937 21.734 20.5314 17.5279 20.6664C13.7101 20.7856 9.89241 20.8893 6.07463 21.0029C5.47409 21.0207 4.87371 21.0492 4.27364 21.0884C3.95537 21.1088 3.82088 20.9812 3.82369 20.6636C3.8307 19.868 3.83701 19.0716 3.82369 18.2759C3.81527 17.8876 4.01088 17.7852 4.34877 17.7999C6.57522 17.8728 8.80178 17.9429 11.0287 18.0102L17.6022 18.2206L27.6227 18.5374C30.9982 18.644 34.3735 18.7561 37.7489 18.8529C38.6483 18.8788 39.5499 18.8571 40.3589 18.8571C33.3368 16.1434 28.0762 11.0147 23.1578 5.45L23.2448 5.24809Z" fill="#171B18"/>
</svg>
