<svg width="46" height="45" viewBox="0 0 46 45" fill="none" xmlns="http://www.w3.org/2000/svg">
<g opacity="0.2">
<path d="M22.5079 45C34.9386 45 45.0158 34.9264 45.0158 22.5C45.0158 10.0736 34.9386 0 22.5079 0C10.0771 0 0 10.0736 0 22.5C0 34.9264 10.0771 45 22.5079 45Z" fill="url(#paint0_linear_342_44290)"/>
</g>
<path d="M30.4213 22.4996V27.4316C30.4302 28.0526 30.241 28.6603 29.8813 29.1667C29.5215 29.6731 29.0098 30.0518 28.4203 30.248C28.1137 30.3576 27.7905 30.4134 27.4649 30.4128H17.5775C17.1867 30.4175 16.7988 30.3444 16.4366 30.1978C16.0743 30.0511 15.7448 29.8339 15.4674 29.5587C15.19 29.2835 14.9701 28.9558 14.8206 28.5948C14.6711 28.2338 14.595 27.8467 14.5967 27.456V17.5462C14.5948 16.8544 14.837 16.1841 15.2806 15.6532C15.7242 15.1223 16.3409 14.7647 17.0222 14.6433C17.2302 14.6032 17.4418 14.5841 17.6537 14.5864H27.371C28.0451 14.5749 28.7034 14.7905 29.24 15.1986C29.7765 15.6066 30.1601 16.1833 30.3289 16.8358C30.3921 17.1106 30.4219 17.3921 30.4176 17.674C30.4201 19.2826 30.4213 20.8911 30.4213 22.4996ZM23.1361 21.6015V20.8534C23.1361 20.6996 23.1006 20.6479 22.9379 20.6494C22.2374 20.6577 21.5386 20.6577 20.8415 20.6494C20.6803 20.6494 20.6374 20.6989 20.6374 20.8549C20.6458 23.1824 20.65 25.5106 20.65 27.8396C20.65 27.9793 20.6943 28.017 20.8275 28.017H22.9527C23.1191 28.017 23.1509 27.9601 23.1494 27.8101V25.6294C23.1494 24.9641 23.1494 24.3025 23.1656 23.6402C23.1714 23.463 23.2137 23.2888 23.2901 23.1288C23.3665 22.9687 23.4751 22.8262 23.6093 22.7103C23.7454 22.5722 23.9156 22.4728 24.1028 22.4221C24.2899 22.3715 24.4871 22.3715 24.6742 22.4221C24.8613 22.4727 25.0316 22.5722 25.1676 22.7102C25.3037 22.8483 25.4006 23.02 25.4484 23.2078C25.5238 23.5022 25.5571 23.8058 25.5475 24.1096C25.5475 25.3492 25.5475 26.5793 25.5475 27.8138C25.5475 27.9734 25.5918 28.0178 25.7493 28.0156C26.426 28.0156 27.1048 28.0052 27.7821 28.0156C27.9714 28.0156 28.0336 27.9764 28.0321 27.7746C28.0217 26.5608 28.0321 25.3478 28.0321 24.134C28.0414 23.7389 28.0224 23.3436 27.9751 22.9512C27.9415 22.3637 27.7078 21.8054 27.3129 21.369C26.9179 20.9327 26.3855 20.6445 25.8041 20.5525C25.3401 20.4413 24.8535 20.4718 24.4071 20.6401C23.9607 20.8084 23.5751 21.1067 23.3002 21.4965C23.2861 21.5277 23.2632 21.5542 23.2343 21.5727C23.2055 21.5912 23.1718 21.6009 23.1375 21.6007L23.1361 21.6015ZM19.489 24.3365V20.8645C19.489 20.6996 19.4447 20.6486 19.2761 20.6501C18.5918 20.6585 17.9078 20.6585 17.224 20.6501C17.068 20.6501 17.0185 20.693 17.0185 20.8519C17.0268 23.1725 17.031 25.4919 17.031 27.8101C17.031 27.966 17.0754 28.0193 17.2351 28.017C17.9194 28.0087 18.6034 28.0087 19.2871 28.017C19.4646 28.017 19.4979 27.9638 19.4964 27.8012C19.4838 26.6465 19.4875 25.4897 19.4875 24.3328L19.489 24.3365ZM16.872 18.4583C16.8709 18.6285 16.905 18.7971 16.9721 18.9535C17.0392 19.1099 17.1379 19.2508 17.2621 19.3672C17.3862 19.4837 17.5331 19.5733 17.6935 19.6303C17.8539 19.6874 18.0244 19.7107 18.1942 19.6987C18.3659 19.7112 18.5383 19.6886 18.7009 19.6322C18.8635 19.5758 19.0129 19.4868 19.1399 19.3707C19.2669 19.2546 19.3689 19.1138 19.4396 18.9569C19.5103 18.8 19.5483 18.6304 19.5511 18.4583C19.5524 18.2866 19.5178 18.1166 19.4495 17.959C19.3813 17.8014 19.2809 17.6598 19.1548 17.5432C19.0287 17.4266 18.8796 17.3376 18.7172 17.2818C18.5547 17.2261 18.3824 17.2048 18.2112 17.2194C18.0406 17.2071 17.8692 17.2299 17.7078 17.2865C17.5463 17.3431 17.3982 17.4322 17.2727 17.5484C17.1471 17.6645 17.0468 17.8052 16.9778 17.9618C16.9089 18.1183 16.8729 18.2873 16.872 18.4583Z" fill="black"/>
<defs>
<linearGradient id="paint0_linear_342_44290" x1="45.0158" y1="46.4343" x2="15.2691" y2="-8.29859" gradientUnits="userSpaceOnUse">
<stop stop-color="#EB212E"/>
<stop offset="1" stop-color="#FF6973"/>
</linearGradient>
</defs>
</svg>
