<svg width="94" height="129" viewBox="0 0 94 129" fill="none" xmlns="http://www.w3.org/2000/svg">
<g clip-path="url(#clip0_400_6104)">
<path d="M19.7614 106.978L0.843448 117.9C-0.409228 118.621 -0.250726 119.883 1.19624 120.722L14.3417 128.315C15.7886 129.148 17.977 129.24 19.2297 128.519L38.1476 117.598C39.4003 116.877 39.2418 115.614 37.7948 114.776L24.6494 107.183C23.2024 106.349 21.0141 106.257 19.7614 106.978ZM72.8544 76.3824L28.116 102.188C26.8633 102.908 27.0218 104.171 28.4688 105.01L41.6142 112.603C43.0612 113.436 45.2495 113.528 46.5022 112.807L91.2406 87.002C92.4933 86.2811 92.3348 85.0182 90.8878 84.1797L77.7424 76.5869C76.2954 75.7535 74.1071 75.6615 72.8544 76.3824Z" fill="url(#paint0_linear_400_6104)"/>
<path d="M60.0104 7.11227C56.1399 5.21536 49.989 9.65341 49.989 11.4992L38.1576 4.85234C38.1576 2.95543 44.8044 -1.79451 48.6443 0.715954L60.0104 7.11227Z" fill="#B35157"/>
<path opacity="0.3" d="M60.0104 7.11227C56.1399 5.21536 49.989 9.65341 49.989 11.4992L38.1576 4.85234C38.1576 2.95543 44.8044 -1.79451 48.6443 0.715954L60.0104 7.11227Z" fill="white"/>
<path d="M90.6877 17.5684V17.5837C89.6396 17.0366 88.1773 17.0673 86.3008 18.1666L63.7015 31.2302C64.7497 25.9945 65.0667 21.49 64.4685 17.323L74.5052 11.5044C76.5811 10.2926 78.1457 10.3898 79.2245 11.1209L90.6929 17.5684H90.6877Z" fill="#B35157"/>
<path opacity="0.3" d="M90.6877 17.5684V17.5837C89.6396 17.0366 88.1773 17.0673 86.3008 18.1666L63.7015 31.2302C64.7497 25.9945 65.0667 21.49 64.4685 17.323L74.5052 11.5044C76.5811 10.2926 78.1457 10.3898 79.2245 11.1209L90.6929 17.5684H90.6877Z" fill="white"/>
<path d="M38.7965 104.622L26.9651 97.7966V48.9883L38.7965 55.8192V104.622Z" fill="#B35157"/>
<g opacity="0.2">
<path d="M38.7965 104.62L26.9651 97.7947V48.9863L38.7965 55.8172V104.62Z" fill="black"/>
</g>
<path d="M49.994 29.0008C49.0481 32.4061 38.7966 55.8183 38.7966 55.8183L26.9703 48.9874C26.9703 48.9874 37.2014 25.7439 38.1984 22.354C39.1443 18.9641 38.1626 7.11735 38.1626 4.85742L49.994 11.5043C49.994 13.7795 50.991 25.6314 49.994 29.0008Z" fill="#B35157"/>
<path d="M39.052 55.8707C39.4252 55.0219 44.4615 43.4871 47.652 35.7614L47.6724 35.7154V35.7051C48.3576 34.0537 49.012 32.438 49.5182 31.1444C49.8915 30.1525 50.1267 29.4724 50.2391 29.0736C50.5766 27.9283 50.7249 25.7349 50.6789 22.5495C50.6635 21.0923 50.6073 19.4101 50.5152 17.4007C50.4795 16.5315 50.4385 15.7032 50.3976 14.9516L50.3414 13.7654C50.2749 12.5843 50.2443 11.8839 50.2443 11.5004C50.2443 11.1169 50.6022 10.5443 51.2055 9.94094C52.7036 8.43772 55.4799 6.91406 57.8881 6.91406C58.6346 6.91406 59.3146 7.05723 59.9026 7.34866C60.8076 7.7986 61.4877 8.5451 61.9836 9.63927C63.1136 12.1191 63.8447 14.6449 64.2129 17.3547C64.7804 21.3275 64.5401 25.7195 63.4561 31.1802L63.3488 31.7324L86.4338 18.3875C87.4462 17.7944 88.3818 17.4979 89.2101 17.4979C89.7061 17.4979 90.1611 17.6053 90.5702 17.82C92.0989 18.587 92.779 20.7037 92.779 22.4575C92.8097 27.1205 90.0435 30.9757 89.1897 32.0443L88.6886 32.6732L89.4607 32.4482C89.4607 32.4482 89.8595 32.3306 90.4014 32.3306C91.8842 32.3306 93.6482 33.1231 93.6482 36.9118C93.6482 40.0358 91.7513 44.9187 88.2336 47.8075L87.983 48.012L88.2387 48.2063C88.2387 48.2063 89.6294 49.3516 89.6294 53.3551C89.6294 56.0292 86.4951 62.6351 83.412 64.4195L83.2075 64.5371L83.3098 64.7519C83.3098 64.7519 84.2454 66.7306 84.2454 70.0233C84.271 73.899 80.9987 79.9476 76.08 82.7751C71.5091 85.4185 42.7129 102.071 39.0469 104.188V55.8758L39.052 55.8707Z" fill="#FFD1D4"/>
<path d="M33.4081 59.9994C33.4081 59.2989 33.1576 58.5524 32.7741 57.8724C32.3753 57.2077 31.8435 56.6095 31.2453 56.2618L23.7344 51.926C22.538 51.246 20.6257 51.246 19.4293 51.926H19.4139L7.43427 58.8541C6.83605 59.2018 6.28896 59.8 5.90549 60.4647C5.52202 61.1447 5.27148 61.9116 5.27148 62.5917V114.422C5.27148 115.802 6.23783 117.479 7.43427 118.159L14.9452 122.495C15.5434 122.843 16.3257 123.012 17.108 123.012C17.8903 123.012 18.6521 122.848 19.2503 122.516C19.2503 122.5 19.2657 122.5 19.2657 122.5L31.2811 115.552C32.4775 114.872 33.4439 113.21 33.4439 111.829V111.814L33.4132 59.9994H33.4081Z" fill="#B35157"/>
<path opacity="0.2" d="M17.103 66.9276V123.012C16.3207 123.012 15.5384 122.848 14.9402 122.495L7.42926 118.159C6.23283 117.479 5.26648 115.797 5.26648 114.422V62.5918C5.26648 61.9118 5.51701 61.1449 5.90049 60.4648L17.103 66.9276Z" fill="black"/>
<path opacity="0.3" d="M32.7744 57.8724L17.1031 66.9275L5.90063 60.4647C6.28411 59.8 6.83119 59.2018 7.42941 58.8541L19.4091 51.926H19.4244C20.6208 51.246 22.5331 51.246 23.7295 51.926L31.2405 56.2618C31.8387 56.6095 32.3704 57.2077 32.7692 57.8724H32.7744Z" fill="white"/>
</g>
<defs>
<linearGradient id="paint0_linear_400_6104" x1="20.5087" y1="78.9228" x2="24.0134" y2="124.249" gradientUnits="userSpaceOnUse">
<stop stop-opacity="0.15"/>
<stop offset="0.484375" stop-opacity="0.392857"/>
<stop offset="0.841994"/>
<stop offset="1"/>
</linearGradient>
<clipPath id="clip0_400_6104">
<rect width="93.9046" height="129" fill="white"/>
</clipPath>
</defs>
</svg>
