<svg width="78" height="65" viewBox="0 0 78 65" fill="none" xmlns="http://www.w3.org/2000/svg">
<path d="M66.4133 0.797491L66.3886 0.76459C65.739 -0.000179983 64.6699 -0.205762 63.7983 0.213628H63.7818C63.7078 0.246522 63.6338 0.287646 63.5598 0.336986L61.7424 1.35667C62.5977 0.978398 63.6338 1.18398 64.2752 1.9323L64.2999 1.9652C65.0729 2.87799 64.966 4.24307 64.0532 5.02429L53.2477 14.1933C53.1408 14.2838 53.0257 14.366 52.9023 14.4318L54.9746 13.2723C55.1062 13.1983 55.2378 13.1161 55.3529 13.0174L66.1584 3.84834C67.0712 3.07535 67.1863 1.70205 66.4051 0.789259L66.4133 0.797491Z" fill="#54B5FF"/>
<path d="M64.0534 5.04146L53.248 14.2105C52.3352 14.9835 50.9701 14.8766 50.1889 13.9638L50.1642 13.9309C49.3912 13.0181 49.4981 11.653 50.4109 10.8718L61.2164 1.70277C62.1292 0.929779 63.4942 1.03668 64.2754 1.94948L64.3001 1.98238C65.0731 2.89517 64.9662 4.26024 64.0534 5.04146Z" fill="#3F92D2"/>
<path d="M74.045 34.3426L60.2627 31.0532C59.7117 30.9217 59.1607 31.0121 58.7084 31.267L58.6591 31.2917C58.6509 31.2917 56.6033 32.443 56.6033 32.443C57.0638 32.1881 57.6065 32.0976 58.1575 32.2292L71.9398 35.5185C73.1075 35.7981 73.8229 36.9658 73.5433 38.1335V38.1746C73.3953 38.7421 73.0499 39.2025 72.5894 39.4986L74.4232 38.4625C74.5384 38.4049 74.6535 38.3473 74.7604 38.2733C75.1798 37.9773 75.5087 37.5415 75.6321 36.9987V36.9576C75.9199 35.7899 75.2045 34.6222 74.0367 34.3426H74.045Z" fill="#54B5FF"/>
<path d="M55.5411 33.905L55.5506 33.865C55.8295 32.6972 56.9987 31.9788 58.1665 32.2576L71.9478 35.5484C73.1156 35.8273 73.834 36.9965 73.5552 38.1643L73.5456 38.2043C73.2668 39.372 72.0976 40.0905 70.9298 39.8116L57.1485 36.5208C55.9807 36.242 55.2622 35.0728 55.5411 33.905Z" fill="#3F92D2"/>
<path d="M29.0789 61.3546L24.7206 42.2683L17.0317 42.0298C17.3442 42.8686 17.6238 43.7567 17.8623 44.6777L20.7569 44.5461L25.1153 63.6325C25.2304 64.1341 25.0906 64.5288 24.7781 64.7591C24.7781 64.7591 28.6842 62.5223 28.7747 62.4483C29.0625 62.2098 29.1776 61.8316 29.0707 61.3546H29.0789Z" fill="#CC8A33"/>
<path d="M23.2653 64.9074L19.4332 63.9206C18.0024 63.5505 16.6702 62.2183 16.6373 61.1246C16.5386 57.6708 17.0485 47.8604 15.5601 45.0316L20.7654 44.5464L25.1238 63.6327C25.3623 64.6689 24.5317 65.2363 23.2653 64.9074Z" fill="#FFAD40"/>
<path d="M16.1031 46.6834C15.9633 46.0091 15.7906 45.4417 15.5686 45.0223L20.774 44.5371L21.1194 46.042L16.1113 46.6834H16.1031Z" fill="#CC8A33"/>
<path d="M26.0449 49.5061L22.328 49.1772L21.1438 43.9883L23.5944 44.2103L26.0449 49.5061Z" fill="#AD2D2D"/>
<path d="M29.1863 47.7021L26.045 49.503L23.5945 44.2072L26.7358 42.4062L29.1863 47.7021Z" fill="#FA4B4B"/>
<path d="M4.72192 39.2504C5.05085 40.5332 4.27786 41.8407 2.99502 42.1697C1.71218 42.4986 0.404673 41.7256 0.0757394 40.4428C-0.253194 39.16 0.519798 37.8524 1.80264 37.5235C3.08548 37.1946 4.39299 37.9676 4.72192 39.2504Z" fill="#AD2D2D"/>
<path d="M19.2189 35.459C20.4524 40.2778 17.5496 45.1872 12.7307 46.4289C7.91183 47.6624 3.0025 44.7595 1.76077 39.9407C0.527273 35.1218 3.43012 30.2125 8.24899 28.9707C13.0679 27.7372 17.9772 30.6401 19.2189 35.459Z" fill="#FFAD40"/>
<path d="M11.6542 43.937C8.80066 41.0836 7.32868 35.5986 8.37304 31.7007C8.89111 29.76 9.93548 28.5758 11.2019 28.2305L9.22827 28.7567C7.94543 29.1021 6.89285 30.2863 6.37478 32.2352C5.33041 36.1413 6.79416 41.6181 9.65588 44.4716C11.0621 45.8778 12.5341 46.3794 13.8004 46.0751L13.8416 46.0669C13.858 46.0669 13.8827 46.0587 13.8991 46.0504L15.7329 45.557C14.483 45.8284 13.0357 45.3103 11.6624 43.937H11.6542Z" fill="#AD2D2D"/>
<path d="M11.5881 28.149C10.1491 28.3546 8.94023 29.5717 8.37282 31.7015C7.32846 35.6076 8.79222 41.0843 11.6539 43.9378C13.0272 45.3111 14.4745 45.8292 15.7245 45.5578C15.7245 45.5578 29.5232 42.0876 39.9422 46.0183C39.9422 46.0183 32.1958 15.8962 32.2863 14.3667C18.3231 26.1425 11.5964 28.1408 11.5964 28.1408L11.5881 28.149Z" fill="#FFAD40"/>
<path d="M47.088 45.0752C52.3259 43.6717 54.6015 35.1796 52.1707 26.1076C49.7398 17.0355 43.5231 10.8189 38.2851 12.2224C33.0472 13.6259 30.7716 22.118 33.2025 31.1901C35.6333 40.2621 41.8501 46.4787 47.088 45.0752Z" fill="#FA4B4B"/>
<path d="M38.4125 12.1948L38.3303 12.2113C38.355 12.2113 38.3879 12.203 38.4125 12.1948Z" fill="#AD2D2D"/>
<path d="M39.0866 42.0609C33.6674 36.6417 30.8797 26.2392 32.8615 18.83C33.8483 15.1459 35.8301 12.901 38.2314 12.2349L34.4815 13.2381C32.0556 13.8877 30.0491 16.1409 29.0623 19.8497C27.0805 27.2589 29.8682 37.6532 35.2874 43.0806C37.9518 45.745 40.7559 46.7071 43.1571 46.1232L43.2311 46.1068C43.2723 46.0986 43.3052 46.0903 43.3463 46.0739L46.8248 45.1364C44.4564 45.6463 41.7098 44.6759 39.0948 42.0609H39.0866Z" fill="#AD2D2D"/>
<path d="M45.6903 17.4099C50.2296 21.9492 52.565 30.6659 50.9039 36.8745C49.7937 41.0191 47.1787 43.0009 44.2101 42.4993C45.6491 41.6194 46.8004 39.9418 47.4418 37.5324C49.103 31.3238 46.7675 22.607 42.2282 18.0678C40.7151 16.5547 39.1609 15.6994 37.689 15.4527C39.9504 14.063 42.9108 14.6304 45.6903 17.4099Z" fill="#AD2D2D"/>
<path d="M42.2361 18.0662C46.7754 22.6055 49.1109 31.3222 47.4497 37.5308C46.8083 39.9403 45.6488 41.6178 44.218 42.4977C42.746 42.2428 41.1836 41.3876 39.6787 39.8827C35.1394 35.3434 32.804 26.6267 34.4651 20.4181C35.1065 18.0086 36.266 16.3311 37.7051 15.4512C39.1771 15.7061 40.7395 16.5613 42.2444 18.0662H42.2361Z" fill="#CC8A33"/>
<path d="M42.8124 28.4777C43.8485 32.5153 41.9819 36.6106 38.5116 38.5677C32.2783 30.2539 34.1697 21.7017 34.1697 21.7017C34.293 21.7017 34.4164 21.7017 34.5397 21.7099C38.38 21.9073 41.8092 24.5552 42.8124 28.4695V28.4777Z" fill="#FFAD40"/>
<path d="M41.8088 27.7726C42.2529 28.2166 42.4831 29.0719 42.3187 29.6804C42.1871 30.182 41.8253 30.3629 41.4552 30.1573C41.5045 30.0833 41.5457 29.9846 41.5703 29.8777C41.7348 29.2692 41.5046 28.414 41.0605 27.9699C40.9865 27.8959 40.9043 27.8301 40.822 27.789C41.0441 27.4272 41.4388 27.4107 41.8088 27.7726Z" fill="#CC8A33"/>
<path d="M41.0606 27.9739C41.5046 28.4179 41.7349 29.2732 41.5704 29.8817C41.5457 29.9886 41.5046 30.0791 41.4553 30.1613C41.3813 30.1202 41.299 30.0544 41.2168 29.9804C40.7728 29.5363 40.5425 28.6811 40.707 28.0726C40.7399 27.9657 40.7728 27.8752 40.8221 27.793C40.8961 27.8341 40.9783 27.8999 41.0606 27.9739Z" fill="#996826"/>
<path d="M77.8187 17.0304V16.9893C77.5309 15.8216 76.3632 15.1061 75.1955 15.3857L61.4132 18.6833C61.2734 18.7162 61.1418 18.7655 61.0103 18.8231C60.9198 18.8642 60.8293 18.9135 60.7389 18.9711L58.8064 20.0483C58.9626 19.9661 59.1271 19.9086 59.2998 19.8592L73.0821 16.5617C74.2498 16.2821 75.4175 17.0057 75.6971 18.1652V18.2063C75.9274 19.1438 75.508 20.0812 74.735 20.5582L76.7826 19.4152C77.5967 18.9464 78.049 17.9843 77.8187 17.0304Z" fill="#54B5FF"/>
<path d="M59.2997 19.8685L73.0805 16.5752C74.2482 16.2962 75.4176 17.0144 75.6966 18.1822L75.7062 18.2222C75.9833 19.3819 75.267 20.5592 74.0993 20.8383L60.3185 24.1315C59.1508 24.4105 57.9814 23.6923 57.7024 22.5245L57.6928 22.4846C57.4157 21.3248 58.132 20.1475 59.2997 19.8685Z" fill="#3F92D2"/>
</svg>
