<svg width="256" height="256" viewBox="0 0 256 256" fill="none" xmlns="http://www.w3.org/2000/svg">
<circle cx="128" cy="128" r="128" fill="#EB212E"/>
<path d="M139.976 104.889L139.662 104.668C139.805 104.811 139.926 104.896 139.976 104.889Z" fill="white"/>
<path d="M143.172 152.788L143.486 152.566C143.3 152.652 143.179 152.73 143.172 152.788Z" fill="white"/>
<path d="M175.257 125.943C188.75 116.696 189.306 113.07 177.567 104.253C158.623 90.0204 145.891 86.6894 132.947 81.457C150.264 91.0908 173.363 106.098 171.426 116.682C168.349 133.457 139.37 141.295 139.37 141.295C139.792 141.267 144.56 140.415 149.539 138.246C152.673 136.887 166.701 131.809 175.264 125.943H175.257Z" fill="white"/>
<path d="M114.659 72.025C114.659 72.025 122.814 75.8278 132.941 81.4616C145.885 86.694 158.617 90.025 177.561 104.257C189.3 113.081 188.744 116.708 175.251 125.947C166.68 131.821 152.659 136.891 149.525 138.25C144.547 140.412 139.779 141.264 139.356 141.3C137.124 141.454 134.976 141.025 132.892 140.328C131.089 139.729 129.307 139.081 127.42 138.771C126.448 138.609 125.49 138.638 124.532 138.962C123.603 139.278 122.659 139.56 121.723 139.863C121.561 139.912 121.406 139.983 121.265 140.074C120.793 140.384 120.694 140.652 120.849 141.187C121.061 141.926 121.279 142.659 121.497 143.391C121.582 143.673 121.666 143.962 121.758 144.278C121.575 144.335 121.434 144.384 121.3 144.426C119.011 145.159 116.716 145.891 114.427 146.624C114.068 146.736 113.723 146.87 113.483 147.194C113.089 147.729 113.061 148.391 113.427 148.919C113.765 149.412 114.392 149.609 115.025 149.412C117.04 148.771 119.054 148.131 121.068 147.49C121.547 147.335 122.032 147.18 122.532 147.018C123.603 150.673 124.659 154.293 125.73 157.954C125.589 157.997 125.462 158.039 125.335 158.081C122.969 158.835 120.596 159.588 118.23 160.349C117.23 160.673 116.835 161.8 117.427 162.595C117.8 163.109 118.427 163.264 119.173 163.025C121.49 162.285 123.8 161.546 126.117 160.807C126.244 160.764 126.371 160.722 126.547 160.666C126.596 160.835 126.631 160.954 126.666 161.067C126.934 161.997 127.223 162.919 127.476 163.856C127.575 164.229 127.807 164.433 128.166 164.469C128.413 164.497 128.687 164.49 128.92 164.419C129.948 164.109 130.983 163.814 131.983 163.433C132.547 163.222 133.089 162.905 133.568 162.546C134.673 161.708 135.525 160.623 136.378 159.546C137.378 158.278 138.314 156.969 139.363 155.743C140.399 154.532 143.18 152.722 143.166 152.778C143.173 152.722 143.3 152.652 143.476 152.56C144.011 152.307 145.068 151.969 145.223 151.905C151.455 149.293 157.708 146.75 163.849 143.926C170.307 140.955 176.716 137.736 182.624 133.757C187.096 130.75 192.103 126.997 194.265 121.87C194.617 121.032 194.884 120.152 195.011 119.243C198.406 95.4475 133.955 75.5039 114.659 72.0039V72.025Z" fill="white"/>
<path d="M103.591 84.2411C90.2109 74.8397 86.6123 75.5862 82.4644 89.6777C75.7672 112.41 77.1052 125.502 76.7461 139.459C79.7038 119.861 85.6686 92.9735 96.2601 91.0791C113.049 88.0862 130.542 112.488 130.542 112.488C130.366 112.1 127.901 107.938 124.126 104.03C121.753 101.572 112.091 90.2129 103.591 84.2411Z" fill="white"/>
<path d="M157.964 123.772C156.464 121.864 154.957 119.955 153.45 118.047C153.366 117.941 153.288 117.836 153.169 117.695C153.309 117.589 153.408 117.519 153.507 117.441C154.281 116.864 155.049 116.272 155.831 115.709C156.147 115.483 156.253 115.195 156.169 114.85C156.105 114.61 156.007 114.357 155.859 114.159C155.211 113.307 154.57 112.441 153.866 111.631C153.471 111.181 152.986 110.779 152.478 110.455C151.309 109.716 149.993 109.293 148.683 108.871C147.147 108.378 145.591 107.962 144.077 107.406C142.584 106.857 139.908 104.892 139.971 104.878C139.915 104.885 139.802 104.8 139.662 104.659C139.232 104.244 138.549 103.378 138.436 103.258C133.81 98.3355 129.239 93.3637 124.443 88.6032C119.394 83.5961 114.141 78.7229 108.345 74.5821C103.957 71.4623 98.6898 68.0821 93.1265 67.8497C92.218 67.8145 91.2955 67.8708 90.4082 68.068C66.9293 73.2229 70.8237 140.582 74.3096 159.878C74.3096 159.878 75.0138 150.913 76.7462 139.448C77.1124 125.49 75.7673 112.399 82.4645 89.6665C86.6124 75.575 90.211 74.8356 103.591 84.2299C112.091 90.2017 121.753 101.554 124.126 104.019C127.894 107.927 130.366 112.089 130.542 112.476C131.464 114.512 131.824 116.681 131.901 118.871C131.971 120.765 131.993 122.666 132.359 124.54C132.549 125.505 132.908 126.392 133.542 127.181C134.162 127.941 134.76 128.723 135.366 129.497C135.471 129.631 135.591 129.751 135.725 129.857C136.183 130.195 136.464 130.188 136.915 129.857C137.528 129.399 138.14 128.934 138.753 128.476C138.993 128.3 139.225 128.124 139.493 127.92C139.612 128.075 139.704 128.188 139.788 128.3C141.281 130.188 142.767 132.082 144.26 133.969C144.493 134.265 144.739 134.54 145.126 134.652C145.767 134.835 146.394 134.624 146.76 134.103C147.105 133.61 147.07 132.955 146.662 132.434C145.359 130.772 144.049 129.11 142.739 127.455C142.429 127.061 142.112 126.659 141.788 126.244C144.838 123.962 147.859 121.702 150.915 119.42C151.007 119.54 151.091 119.638 151.169 119.744C152.704 121.695 154.239 123.652 155.781 125.603C156.429 126.427 157.626 126.399 158.169 125.568C158.521 125.033 158.443 124.399 157.957 123.779L157.964 123.772Z" fill="white"/>
<path d="M96.3229 169.188C95.668 185.526 98.2384 188.146 112.33 184.005C135.069 177.329 145.351 169.118 157.281 161.864C139.203 169.984 113.358 179.526 106.041 171.646C94.4356 159.153 105.478 131.23 105.478 131.23C105.245 131.59 103.083 135.914 101.837 141.202C101.055 144.533 96.7384 158.808 96.3158 169.181L96.3229 169.188Z" fill="white"/>
<path d="M100.134 102.062C99.3452 104.358 98.5565 106.653 97.7607 108.956C97.7185 109.083 97.6762 109.21 97.6128 109.386C97.4438 109.322 97.3311 109.28 97.2185 109.238C96.31 108.9 95.4016 108.576 94.5002 108.217C94.141 108.076 93.8382 108.139 93.5917 108.4C93.4227 108.583 93.2678 108.801 93.1762 109.034C92.81 110.041 92.4297 111.048 92.134 112.076C91.972 112.653 91.8945 113.28 91.8945 113.879C91.9016 115.266 92.2607 116.597 92.6128 117.928C93.0283 119.484 93.5213 121.02 93.8734 122.59C94.2255 124.146 94.0142 127.456 93.972 127.407C94.0072 127.449 94.0002 127.59 93.9579 127.787C93.8382 128.372 93.479 129.421 93.4438 129.576C91.81 136.132 90.1058 142.668 88.7044 149.273C87.2255 156.224 85.972 163.287 85.6269 170.4C85.3664 175.78 85.3804 182.041 88.1973 186.843C88.6621 187.632 89.2044 188.365 89.8523 189.012C106.894 205.963 161.423 166.224 175.761 152.851C175.761 152.851 167.838 157.111 157.268 161.858C145.338 169.104 135.056 177.322 112.317 183.998C98.2255 188.139 95.6551 185.52 96.31 169.182C96.7255 158.808 101.042 144.527 101.831 141.203C103.078 135.914 105.24 131.59 105.472 131.231C106.683 129.351 108.31 127.879 110.113 126.625C111.669 125.541 113.254 124.499 114.634 123.168C115.345 122.484 115.894 121.703 116.211 120.745C116.514 119.808 116.852 118.886 117.169 117.956C117.225 117.794 117.261 117.625 117.275 117.463C117.31 116.9 117.155 116.661 116.634 116.463C115.916 116.196 115.197 115.928 114.479 115.661C114.204 115.555 113.923 115.456 113.613 115.337C113.676 115.153 113.725 115.02 113.768 114.879C114.549 112.604 115.331 110.33 116.113 108.048C116.233 107.689 116.331 107.337 116.218 106.949C116.028 106.315 115.507 105.9 114.866 105.872C114.268 105.851 113.733 106.231 113.514 106.865C112.824 108.858 112.134 110.858 111.444 112.858C111.282 113.337 111.113 113.815 110.944 114.315C107.373 112.984 103.838 111.668 100.268 110.337C100.317 110.196 100.359 110.069 100.402 109.949C101.211 107.597 102.028 105.252 102.831 102.9C103.169 101.907 102.5 100.921 101.507 100.914C100.873 100.914 100.373 101.315 100.12 102.055L100.134 102.062Z" fill="white"/>
</svg>
