<svg width="44" height="45" viewBox="0 0 44 45" fill="none" xmlns="http://www.w3.org/2000/svg">
<g id="Group 1321314356">
<rect id="Rectangle 25185" y="0.773438" width="44" height="44" rx="14.1935" fill="white"/>
<path id="Path 50" d="M34.89 23.1893V30.9674C34.904 31.9467 34.6057 32.9052 34.0383 33.7037C33.4709 34.5023 32.664 35.0996 31.7343 35.409C31.2508 35.5819 30.7411 35.6699 30.2276 35.6689H14.6345C14.0182 35.6764 13.4065 35.5611 12.8352 35.3298C12.2639 35.0986 11.7443 34.7559 11.3068 34.3219C10.8692 33.8879 10.5225 33.3712 10.2867 32.8019C10.051 32.2325 9.93096 31.622 9.93364 31.0058L9.93364 15.3774C9.9307 14.2865 10.3126 13.2294 11.0122 12.3921C11.7118 11.5548 12.6843 10.9909 13.7587 10.7994C14.0868 10.7361 14.4205 10.7061 14.7546 10.7097L30.0795 10.7097C31.1425 10.6915 32.1808 11.0316 33.027 11.6751C33.8731 12.3186 34.478 13.2281 34.7442 14.2571C34.844 14.6905 34.891 15.1344 34.8841 15.5791C34.888 18.1158 34.89 20.6526 34.89 23.1893ZM23.4007 21.7729V20.5931C23.4007 20.3506 23.3448 20.269 23.0882 20.2714C21.9834 20.2846 20.8814 20.2846 19.7821 20.2714C19.5278 20.2714 19.4602 20.3495 19.4602 20.5954C19.4734 24.2661 19.48 27.9379 19.48 31.6109C19.48 31.8312 19.55 31.8906 19.7599 31.8906L23.1115 31.8906C23.3739 31.8906 23.4241 31.8009 23.4217 31.5642V28.1252C23.4217 27.076 23.4217 26.0326 23.4474 24.9881C23.4564 24.7086 23.5232 24.434 23.6436 24.1816C23.7641 23.9292 23.9355 23.7044 24.1471 23.5215C24.3616 23.3038 24.6302 23.147 24.9253 23.0672C25.2203 22.9873 25.5314 22.9873 25.8264 23.0671C26.1215 23.147 26.3901 23.3037 26.6046 23.5215C26.8192 23.7392 26.972 24.01 27.0474 24.3061C27.1663 24.7705 27.2189 25.2493 27.2037 25.7284C27.2037 27.6834 27.2037 29.6232 27.2037 31.5701C27.2037 31.8219 27.2736 31.8918 27.522 31.8883C28.5891 31.8883 29.6596 31.872 30.7279 31.8883C31.0264 31.8883 31.1244 31.8265 31.122 31.5083C31.1057 29.5941 31.122 27.681 31.122 25.7668C31.1368 25.1437 31.1068 24.5204 31.0322 23.9016C30.9792 22.9751 30.6107 22.0945 29.9878 21.4064C29.3649 20.7182 28.5253 20.2638 27.6083 20.1186C26.8767 19.9432 26.1092 19.9913 25.4052 20.2567C24.7013 20.5221 24.0931 20.9926 23.6596 21.6073C23.6373 21.6566 23.6012 21.6983 23.5557 21.7275C23.5102 21.7567 23.4571 21.772 23.4031 21.7717L23.4007 21.7729ZM17.6491 26.0863L17.6491 20.6106C17.6491 20.3506 17.5791 20.2702 17.3133 20.2725C16.2341 20.2857 15.1554 20.2857 14.0771 20.2725C13.831 20.2725 13.7529 20.3401 13.7529 20.5908C13.7661 24.2505 13.7727 27.9084 13.7727 31.5642C13.7727 31.8102 13.8427 31.8941 14.0946 31.8906C15.1737 31.8774 16.2524 31.8774 17.3307 31.8906C17.6106 31.8906 17.6631 31.8067 17.6608 31.5502C17.6409 29.7293 17.6468 27.9049 17.6468 26.0804L17.6491 26.0863ZM13.522 16.816C13.5202 17.0844 13.5739 17.3503 13.6798 17.5969C13.7856 17.8436 13.9413 18.0657 14.1371 18.2494C14.3329 18.4331 14.5645 18.5743 14.8175 18.6643C15.0705 18.7542 15.3393 18.791 15.6071 18.7722C15.8778 18.7919 16.1497 18.7562 16.4062 18.6672C16.6626 18.5782 16.8982 18.4379 17.0985 18.2548C17.2988 18.0717 17.4597 17.8496 17.5712 17.6022C17.6827 17.3548 17.7426 17.0873 17.7471 16.816C17.749 16.5452 17.6944 16.277 17.5868 16.0285C17.4792 15.78 17.3209 15.5566 17.122 15.3727C16.9231 15.1889 16.6881 15.0485 16.4318 14.9606C16.1756 14.8726 15.9039 14.8391 15.6339 14.8622C15.3648 14.8427 15.0946 14.8787 14.84 14.9679C14.5854 15.0571 14.3518 15.1977 14.1538 15.3809C13.9558 15.5641 13.7975 15.786 13.6888 16.0329C13.5801 16.2797 13.5234 16.5463 13.522 16.816Z" fill="black"/>
</g>
</svg>
