<svg width="217" height="217" viewBox="0 0 217 217" fill="none" xmlns="http://www.w3.org/2000/svg">
<rect width="217" height="217" rx="16" fill="#E8E5E5"/>
<path d="M149.457 76H67.5433C62.2812 76 58 80.2812 58 85.5433V133.26C58 138.522 62.2812 142.803 67.5433 142.803H149.457C154.719 142.803 159 138.522 159 133.26V85.5433C159 80.2812 154.719 76 149.457 76ZM155.819 133.26C155.819 136.768 152.965 139.622 149.457 139.622H67.5433C64.0351 139.622 61.1811 136.768 61.1811 133.26V85.5433C61.1811 82.0351 64.0351 79.1811 67.5433 79.1811H149.457C152.965 79.1811 155.819 82.0351 155.819 85.5433V133.26Z" fill="black"/>
<path d="M79.6059 109.402C79.6059 104.722 81.4227 100.329 84.7215 97.0299C85.3426 96.4088 85.3426 95.4018 84.7215 94.7807C84.1004 94.1596 83.0936 94.1594 82.4721 94.7807C78.5724 98.6803 76.4248 103.873 76.4248 109.402C76.4248 114.93 78.5724 120.123 82.4721 124.023C82.7826 124.333 83.1896 124.488 83.5968 124.488C84.004 124.488 84.411 124.333 84.7215 124.023C85.3426 123.401 85.3426 122.394 84.7215 121.773C81.4225 118.475 79.6059 114.081 79.6059 109.402Z" fill="black"/>
<path d="M85.9653 109.402C85.9653 106.424 87.1212 103.628 89.2205 101.529C89.8417 100.908 89.8417 99.9006 89.2205 99.2793C88.5996 98.6582 87.5926 98.6582 86.9711 99.2793C84.2713 101.979 82.7842 105.574 82.7842 109.402C82.7842 113.229 84.2711 116.824 86.9711 119.524C87.2817 119.834 87.6886 119.99 88.0958 119.99C88.503 119.99 88.91 119.834 89.2205 119.524C89.8417 118.903 89.8417 117.896 89.2205 117.274C87.1212 115.175 85.9653 112.379 85.9653 109.402Z" fill="black"/>
<path d="M93.7194 103.778C93.0983 103.157 92.0915 103.157 91.47 103.778C89.9679 105.28 89.1406 107.277 89.1406 109.402C89.1406 111.526 89.9679 113.523 91.47 115.025C91.7805 115.336 92.1875 115.491 92.5947 115.491C93.0019 115.491 93.4089 115.336 93.7194 115.025C94.3405 114.404 94.3405 113.397 93.7194 112.776C92.8182 111.874 92.3217 110.676 92.3217 109.402C92.3217 108.127 92.8182 106.929 93.7194 106.028C94.3405 105.407 94.3405 104.4 93.7194 103.778Z" fill="black"/>
<path d="M132.278 94.7807C131.657 95.4018 131.657 96.4088 132.278 97.0299C135.577 100.329 137.394 104.722 137.394 109.402C137.394 114.081 135.577 118.474 132.278 121.773C131.657 122.394 131.657 123.401 132.278 124.023C132.589 124.333 132.996 124.488 133.403 124.488C133.81 124.488 134.217 124.333 134.528 124.023C138.427 120.123 140.575 114.93 140.575 109.402C140.575 103.873 138.427 98.6803 134.528 94.7807C133.907 94.1597 132.9 94.1593 132.278 94.7807Z" fill="black"/>
<path d="M130.029 99.2793C129.407 98.6582 128.401 98.6582 127.779 99.2793C127.158 99.9004 127.158 100.907 127.779 101.529C129.879 103.628 131.035 106.424 131.035 109.402C131.035 112.379 129.879 115.175 127.779 117.274C127.158 117.896 127.158 118.903 127.779 119.524C128.09 119.834 128.497 119.99 128.904 119.99C129.311 119.99 129.718 119.834 130.029 119.524C132.729 116.824 134.216 113.229 134.216 109.402C134.216 105.574 132.729 101.979 130.029 99.2793Z" fill="black"/>
<path d="M125.531 103.778C124.909 103.157 123.903 103.157 123.281 103.778C122.66 104.399 122.66 105.406 123.281 106.028C124.183 106.929 124.679 108.127 124.679 109.402C124.679 110.676 124.183 111.875 123.281 112.776C122.66 113.397 122.66 114.404 123.281 115.025C123.592 115.336 123.999 115.491 124.406 115.491C124.813 115.491 125.22 115.336 125.531 115.025C127.033 113.523 127.86 111.526 127.86 109.402C127.86 107.277 127.033 105.28 125.531 103.778Z" fill="black"/>
<path d="M108.5 101.449C104.114 101.449 100.547 105.016 100.547 109.402C100.547 113.787 104.114 117.354 108.5 117.354C112.885 117.354 116.452 113.787 116.452 109.402C116.452 105.016 112.885 101.449 108.5 101.449ZM108.5 114.173C105.869 114.173 103.728 112.033 103.728 109.402C103.728 106.77 105.869 104.63 108.5 104.63C111.131 104.63 113.271 106.77 113.271 109.402C113.271 112.033 111.131 114.173 108.5 114.173Z" fill="black"/>
</svg>
