<svg width="58" height="58" viewBox="0 0 58 58" fill="none" xmlns="http://www.w3.org/2000/svg">
<rect width="58" height="58" rx="9" fill="#F7F7F7"/>
<path d="M30.8561 22.6041L30.7832 22.5527C30.8163 22.5859 30.8445 22.6058 30.8561 22.6041Z" fill="#EB212E"/>
<path d="M31.6094 33.7286L31.6823 33.6772C31.6392 33.6971 31.611 33.7154 31.6094 33.7286Z" fill="#EB212E"/>
<path d="M39.0569 27.4934C42.1906 25.3459 42.3198 24.5036 39.5934 22.4559C35.1937 19.1505 32.2366 18.3768 29.2305 17.1616C33.2523 19.3991 38.6169 22.8844 38.1672 25.3427C37.4524 29.2386 30.7221 31.059 30.7221 31.059C30.8202 31.0524 31.9275 30.8545 33.0838 30.3508C33.8117 30.0351 37.0697 28.8559 39.0585 27.4934H39.0569Z" fill="#EB212E"/>
<path d="M24.9809 14.9712C24.9809 14.9712 26.8749 15.8544 29.2268 17.1629C32.2329 18.3781 35.19 19.1517 39.5897 22.4572C42.3162 24.5065 42.187 25.3488 39.0532 27.4947C37.0628 28.8587 33.8064 30.0363 33.0785 30.352C31.9222 30.8541 30.8149 31.052 30.7168 31.0602C30.1983 31.0962 29.6995 30.9964 29.2153 30.8345C28.7966 30.6955 28.3828 30.545 27.9445 30.473C27.7188 30.4354 27.4964 30.442 27.2739 30.5172C27.058 30.5908 26.8389 30.6562 26.6214 30.7265C26.5837 30.738 26.5478 30.7543 26.515 30.7756C26.4055 30.8476 26.3826 30.9097 26.4185 31.034C26.4676 31.2058 26.5183 31.3759 26.569 31.546C26.5886 31.6114 26.6083 31.6784 26.6295 31.752C26.587 31.7651 26.5543 31.7766 26.5232 31.7864C25.9917 31.9565 25.4585 32.1266 24.9269 32.2967C24.8435 32.3228 24.7634 32.3539 24.7078 32.4292C24.6162 32.5535 24.6096 32.7072 24.6947 32.8299C24.7732 32.9444 24.9187 32.9901 25.0659 32.9444C25.5337 32.7955 26.0015 32.6467 26.4692 32.4978C26.5805 32.4619 26.6933 32.4259 26.8094 32.3883C27.058 33.2371 27.3034 34.0778 27.552 34.9283C27.5193 34.9381 27.4898 34.9479 27.4604 34.9577C26.9108 35.1327 26.3597 35.3077 25.8101 35.4844C25.5779 35.5596 25.4863 35.8213 25.6237 36.0061C25.7103 36.1255 25.8559 36.1615 26.0293 36.1059C26.5674 35.9342 27.1038 35.7624 27.6419 35.5907C27.6714 35.5809 27.7008 35.5711 27.7417 35.558C27.7532 35.5972 27.7613 35.625 27.7695 35.6512C27.8317 35.8671 27.8987 36.0813 27.9576 36.2989C27.9805 36.3856 28.0345 36.433 28.1179 36.4412C28.1751 36.4477 28.2389 36.4461 28.2929 36.4297C28.5317 36.3578 28.7721 36.2891 29.0044 36.2007C29.1352 36.1517 29.2611 36.0781 29.3724 35.9947C29.6291 35.8 29.827 35.5482 30.0249 35.2979C30.2572 35.0035 30.4747 34.6993 30.7184 34.4147C30.9588 34.1334 31.6049 33.7131 31.6016 33.7261C31.6033 33.7131 31.6327 33.6967 31.6736 33.6754C31.7979 33.6166 32.0432 33.5381 32.0792 33.5233C33.5267 32.9165 34.9791 32.3261 36.4053 31.6703C37.9051 30.98 39.3934 30.2326 40.7657 29.3085C41.8042 28.6101 42.9671 27.7384 43.4692 26.5477C43.551 26.3531 43.6132 26.1486 43.6426 25.9376C44.4309 20.4111 29.4623 15.7792 24.9809 14.9663V14.9712Z" fill="#EB212E"/>
<path d="M22.4086 17.8068C19.301 15.6234 18.4652 15.7967 17.5019 19.0695C15.9465 24.3491 16.2572 27.3896 16.1738 30.6313C16.8608 26.0795 18.2461 19.8349 20.706 19.395C24.6051 18.6999 28.6678 24.3671 28.6678 24.3671C28.627 24.2771 28.0545 23.3105 27.1779 22.4028C26.6267 21.832 24.3827 19.1938 22.4086 17.8068Z" fill="#EB212E"/>
<path d="M35.0396 26.9902C34.6912 26.547 34.3412 26.1038 33.9912 25.6605C33.9716 25.636 33.9536 25.6115 33.9258 25.5788C33.9585 25.5542 33.9814 25.5379 34.0043 25.5199C34.1842 25.3858 34.3625 25.2484 34.544 25.1175C34.6176 25.0652 34.6421 24.9981 34.6225 24.918C34.6078 24.8624 34.5849 24.8035 34.5505 24.7577C34.4001 24.5598 34.2512 24.3586 34.0877 24.1705C33.9961 24.0659 33.8832 23.9726 33.7655 23.8974C33.494 23.7257 33.1881 23.6275 32.8839 23.5294C32.5274 23.4149 32.1659 23.3184 31.8143 23.1892C31.4675 23.0616 30.846 22.6053 30.8607 22.602C30.8476 22.6037 30.8215 22.5841 30.7888 22.5513C30.689 22.4548 30.5303 22.2537 30.5042 22.2259C29.4296 21.0826 28.3681 19.9279 27.2543 18.8223C26.0816 17.6594 24.8615 16.5276 23.5154 15.5659C22.4965 14.8413 21.2731 14.0563 19.981 14.0023C19.77 13.9941 19.5558 14.0072 19.3497 14.053C13.8967 15.2502 14.8012 30.8943 15.6108 35.3757C15.6108 35.3757 15.7744 33.2937 16.1767 30.631C16.2617 27.3893 15.9494 24.3488 17.5048 19.0692C18.4681 15.7965 19.3039 15.6248 22.4114 17.8066C24.3856 19.1935 26.6295 21.8301 27.1807 22.4025C28.0557 23.3102 28.6298 24.2769 28.6707 24.3668C28.885 24.8395 28.9684 25.3432 28.9864 25.8519C29.0027 26.2919 29.0076 26.7335 29.0927 27.1685C29.1369 27.3926 29.2203 27.5987 29.3675 27.7819C29.5114 27.9585 29.6504 28.14 29.7911 28.3199C29.8156 28.351 29.8434 28.3788 29.8745 28.4034C29.9808 28.4819 30.0462 28.4802 30.1509 28.4034C30.2932 28.2971 30.4355 28.1891 30.5778 28.0828C30.6334 28.0419 30.6874 28.001 30.7495 27.9536C30.7773 27.9896 30.7986 28.0157 30.8182 28.0419C31.1649 28.4802 31.51 28.9202 31.8568 29.3585C31.9108 29.4272 31.968 29.491 32.058 29.5172C32.2068 29.5597 32.3524 29.5106 32.4374 29.3896C32.5175 29.2751 32.5094 29.123 32.4145 29.002C32.1119 28.616 31.8077 28.23 31.5035 27.8456C31.4315 27.754 31.3579 27.6608 31.2827 27.5643C31.9909 27.0344 32.6926 26.5094 33.4024 25.9795C33.4236 26.0073 33.4433 26.0302 33.4613 26.0547C33.8178 26.5078 34.1744 26.9624 34.5326 27.4155C34.683 27.6068 34.9611 27.6003 35.087 27.4073C35.1688 27.283 35.1508 27.1358 35.0379 26.9919L35.0396 26.9902Z" fill="#EB212E"/>
<path d="M20.7265 37.5407C20.5744 41.3352 21.1714 41.9437 24.4442 40.982C29.7254 39.4315 32.1133 37.5244 34.8839 35.8398C30.6854 37.7256 24.683 39.9417 22.9836 38.1116C20.2882 35.2101 22.8528 28.7251 22.8528 28.7251C22.7988 28.8085 22.2967 29.8127 22.0072 31.041C21.8256 31.8147 20.823 35.1299 20.7249 37.5391L20.7265 37.5407Z" fill="#EB212E"/>
<path d="M21.6066 21.9502C21.4234 22.4834 21.2403 23.0166 21.0554 23.5514C21.0456 23.5808 21.0358 23.6103 21.0211 23.6512C20.9818 23.6364 20.9557 23.6266 20.9295 23.6168C20.7185 23.5383 20.5075 23.4631 20.2982 23.3797C20.2148 23.347 20.1444 23.3617 20.0872 23.4222C20.0479 23.4647 20.012 23.5154 19.9907 23.5694C19.9056 23.8033 19.8173 24.0372 19.7486 24.276C19.711 24.4101 19.693 24.5556 19.693 24.6947C19.6947 25.0169 19.7781 25.326 19.8599 25.6351C19.9564 25.9966 20.0708 26.3531 20.1526 26.7178C20.2344 27.0793 20.1853 27.848 20.1755 27.8366C20.1837 27.8464 20.1821 27.8791 20.1722 27.9249C20.1444 28.0606 20.061 28.3043 20.0528 28.3403C19.6734 29.863 19.2776 31.3808 18.9521 32.915C18.6087 34.5293 18.3175 36.1697 18.2374 37.8216C18.1769 39.0712 18.1801 40.5252 18.8344 41.6407C18.9423 41.8238 19.0682 41.9939 19.2187 42.1444C23.1768 46.0812 35.8409 36.8517 39.1709 33.7458C39.1709 33.7458 37.3309 34.7353 34.8759 35.8377C32.1053 37.5207 29.7174 39.4294 24.4361 40.9799C21.1634 41.9416 20.5664 41.3332 20.7185 37.5387C20.815 35.1295 21.8176 31.8126 22.0008 31.0406C22.2903 29.8123 22.7924 28.8081 22.8464 28.7247C23.1277 28.288 23.5055 27.9461 23.9242 27.655C24.2857 27.4031 24.6537 27.1611 24.9742 26.852C25.1394 26.6933 25.267 26.5118 25.3406 26.2893C25.4109 26.0718 25.4894 25.8575 25.563 25.6416C25.5761 25.604 25.5843 25.5648 25.5876 25.5272C25.5957 25.3963 25.5598 25.3407 25.4387 25.2949C25.2719 25.2328 25.1051 25.1706 24.9383 25.1085C24.8745 25.0839 24.809 25.061 24.7371 25.0332C24.7518 24.9907 24.7633 24.9596 24.7731 24.9269C24.9546 24.3986 25.1362 23.8703 25.3177 23.3404C25.3455 23.257 25.3684 23.1752 25.3422 23.0853C25.2981 22.9381 25.177 22.8416 25.0282 22.835C24.8892 22.8301 24.7649 22.9184 24.7142 23.0656C24.5539 23.5285 24.3936 23.993 24.2333 24.4575C24.1957 24.5687 24.1565 24.6799 24.1172 24.7961C23.288 24.4869 22.4669 24.1811 21.6377 23.872C21.6492 23.8393 21.659 23.8098 21.6688 23.782C21.8569 23.2357 22.0466 22.6911 22.233 22.1448C22.3116 21.9142 22.1562 21.6852 21.9256 21.6836C21.7784 21.6836 21.6622 21.7768 21.6034 21.9486L21.6066 21.9502Z" fill="#EB212E"/>
</svg>
