<svg width="12" height="18" viewBox="0 0 12 18" fill="none" xmlns="http://www.w3.org/2000/svg">
<path id="Vector" d="M3.29986 -0.000488281C3.19333 -0.000287085 3.08965 0.0339233 3.00393 0.097168C2.9182 0.160413 2.85492 0.249349 2.82329 0.351074L0.0225128 9.35107C-0.00071172 9.42583 -0.00605992 9.50495 0.00689925 9.58215C0.0198584 9.65936 0.0507629 9.73245 0.0971245 9.79553C0.143486 9.85861 0.20401 9.91002 0.273824 9.94543C0.343638 9.98085 0.420792 9.99936 0.499075 9.99951H3.93658L1.81939 17.3628C1.78768 17.4734 1.79507 17.5915 1.8403 17.6973C1.88553 17.803 1.96584 17.8899 2.0677 17.9434C2.16955 17.9968 2.28672 18.0136 2.39945 17.9907C2.51219 17.9679 2.61359 17.9068 2.68658 17.8179L11.6866 6.81787C11.747 6.74466 11.7854 6.65573 11.7971 6.56152C11.8089 6.46732 11.7936 6.37173 11.7531 6.28589C11.7125 6.20005 11.6483 6.1275 11.5681 6.07678C11.4878 6.02606 11.3948 5.9993 11.2999 5.99951H7.1729L8.77837 0.644043C8.80092 0.569359 8.80569 0.490429 8.79228 0.413574C8.77888 0.33672 8.74768 0.264057 8.70118 0.201416C8.65468 0.138775 8.59417 0.0879299 8.52448 0.0528564C8.4548 0.017783 8.37787 -0.000459314 8.29986 -0.000488281H3.29986ZM3.66704 0.999512H7.62798L6.02056 6.35693C5.9984 6.43149 5.99394 6.51021 6.00753 6.58679C6.02112 6.66337 6.05239 6.73572 6.09885 6.7981C6.1453 6.86047 6.20567 6.91121 6.27515 6.94617C6.34462 6.98112 6.4213 6.99938 6.49908 6.99951H10.2452L3.4522 15.3022L5.08111 9.63818C5.1026 9.56371 5.10648 9.48529 5.09245 9.40906C5.07843 9.33283 5.04687 9.26092 5.00027 9.19897C4.95367 9.13703 4.89331 9.08674 4.82396 9.05212C4.7546 9.01751 4.67815 8.99951 4.60064 8.99951H1.17876L3.66704 0.999512Z" fill="black"/>
</svg>
