<svg width="18" height="18" viewBox="0 0 18 18" fill="none" xmlns="http://www.w3.org/2000/svg">
<g id="Group 1321314225">
<path id="Vector" d="M9 0C7.21997 0 5.47991 0.527841 3.99987 1.51677C2.51983 2.50571 1.36628 3.91131 0.685088 5.55585C0.00389955 7.20038 -0.17433 9.00998 0.172937 10.7558C0.520204 12.5016 1.37737 14.1053 2.63604 15.364C3.89472 16.6226 5.49836 17.4798 7.24419 17.8271C8.99002 18.1743 10.7996 17.9961 12.4442 17.3149C14.0887 16.6337 15.4943 15.4802 16.4832 14.0001C17.4722 12.5201 18 10.78 18 9C17.9975 6.61384 17.0484 4.32613 15.3611 2.63886C13.6739 0.951584 11.3862 0.00255251 9 0ZM9 16.7143C7.47426 16.7143 5.98278 16.2619 4.71418 15.4142C3.44557 14.5665 2.45681 13.3617 1.87293 11.9521C1.28906 10.5425 1.13629 8.99144 1.43395 7.49502C1.7316 5.99859 2.46632 4.62404 3.54518 3.54518C4.62404 2.46631 5.9986 1.7316 7.49502 1.43394C8.99145 1.13628 10.5425 1.28905 11.9521 1.87293C13.3617 2.45681 14.5665 3.44557 15.4142 4.71417C16.2619 5.98278 16.7143 7.47426 16.7143 9C16.7121 11.0453 15.8986 13.0062 14.4524 14.4524C13.0062 15.8986 11.0453 16.7121 9 16.7143Z" fill="black"/>
<path id="Vector_2" d="M9.64314 8.73372V3.21415C9.64314 3.04365 9.57541 2.88014 9.45485 2.75958C9.33429 2.63902 9.17078 2.57129 9.00028 2.57129C8.82978 2.57129 8.66627 2.63902 8.54571 2.75958C8.42515 2.88014 8.35742 3.04365 8.35742 3.21415V8.99986C8.35782 9.08416 8.37464 9.16757 8.40692 9.24543C8.439 9.32388 8.48643 9.39513 8.54642 9.455L11.7607 12.6693C11.882 12.7864 12.0443 12.8512 12.2129 12.8497C12.3814 12.8483 12.5427 12.7807 12.6619 12.6615C12.7811 12.5423 12.8487 12.381 12.8501 12.2125C12.8516 12.0439 12.7868 11.8815 12.6697 11.7603L9.64314 8.73372Z" fill="black"/>
</g>
</svg>
