<svg width="58" height="58" viewBox="0 0 58 58" fill="none" xmlns="http://www.w3.org/2000/svg">
<rect width="58" height="58" rx="9" fill="#F7F7F7"/>
<path d="M41 19.6297H38.2V17.2297C38.1998 17.0176 38.1154 16.8142 37.9654 16.6643C37.8154 16.5143 37.6121 16.4299 37.4 16.4297H33.4C33.1879 16.4299 32.9846 16.5143 32.8346 16.6643C32.6846 16.8142 32.6002 17.0176 32.6 17.2297V19.6297H25.4V17.2297C25.3998 17.0176 25.3154 16.8142 25.1654 16.6643C25.0154 16.5143 24.8121 16.4299 24.6 16.4297H20.6C20.3879 16.4299 20.1846 16.5143 20.0346 16.6643C19.8846 16.8142 19.8002 17.0176 19.8 17.2297V19.6297H17C16.4698 19.6303 15.9614 19.8412 15.5865 20.2161C15.2115 20.5911 15.0006 21.0994 15 21.6297V39.2297C15.0006 39.7599 15.2115 40.2683 15.5865 40.6432C15.9614 41.0182 16.4698 41.2291 17 41.2297H41C41.5302 41.2291 42.0386 41.0182 42.4135 40.6432C42.7885 40.2683 42.9994 39.7599 43 39.2297V21.6297C42.9994 21.0994 42.7885 20.5911 42.4135 20.2161C42.0386 19.8412 41.5302 19.6303 41 19.6297ZM33.4 17.2297H37.4V19.6297H33.4V17.2297ZM20.6 17.2297H24.6V19.6297H20.6V17.2297ZM42.2 39.2297C42.1997 39.5478 42.0731 39.8529 41.8481 40.0778C41.6232 40.3028 41.3182 40.4293 41 40.4297H17C16.6818 40.4293 16.3768 40.3028 16.1519 40.0778C15.9269 39.8529 15.8003 39.5478 15.8 39.2297V21.6297C15.8003 21.3115 15.9269 21.0065 16.1519 20.7815C16.3768 20.5566 16.6818 20.43 17 20.4297H41C41.3182 20.43 41.6232 20.5566 41.8481 20.7815C42.0731 21.0065 42.1997 21.3115 42.2 21.6297V39.2297Z" fill="#AE0006"/>
<path d="M30.6 30.0303H27.9908L29.3714 26.5788C29.4098 26.4805 29.4078 26.371 29.3658 26.2741C29.3239 26.1773 29.2453 26.101 29.1473 26.0618C29.0493 26.0226 28.9398 26.0237 28.8426 26.065C28.7455 26.1062 28.6685 26.1841 28.6286 26.2818L27.0286 30.2818C27.0043 30.3425 26.9953 30.4082 27.0023 30.4732C27.0093 30.5382 27.0321 30.6004 27.0688 30.6546C27.1054 30.7087 27.1548 30.753 27.2125 30.7836C27.2703 30.8143 27.3346 30.8303 27.4 30.8303H30.0092L28.6286 34.2818C28.6086 34.3307 28.5985 34.383 28.5988 34.4358C28.5992 34.4886 28.61 34.5408 28.6306 34.5894C28.6512 34.638 28.6812 34.682 28.7189 34.719C28.7566 34.7559 28.8013 34.785 28.8503 34.8046C28.8993 34.8242 28.9518 34.8339 29.0045 34.8332C29.0573 34.8324 29.1094 34.8212 29.1579 34.8002C29.2063 34.7792 29.2501 34.7489 29.2868 34.7109C29.3234 34.6728 29.3522 34.628 29.3714 34.5788L30.9714 30.5788C30.9957 30.5181 31.0047 30.4524 30.9977 30.3874C30.9907 30.3224 30.9678 30.2601 30.9312 30.206C30.8945 30.1519 30.8452 30.1076 30.7874 30.077C30.7297 30.0463 30.6653 30.0303 30.6 30.0303Z" fill="#AE0006"/>
<path d="M29.0002 23.6299C27.6553 23.6299 26.3406 24.0287 25.2223 24.7759C24.1041 25.5231 23.2325 26.5851 22.7178 27.8276C22.2031 29.0702 22.0685 30.4374 22.3309 31.7565C22.5932 33.0756 23.2409 34.2872 24.1919 35.2382C25.1429 36.1892 26.3545 36.8368 27.6736 37.0992C28.9927 37.3616 30.3599 37.2269 31.6024 36.7123C32.845 36.1976 33.907 35.326 34.6542 34.2078C35.4014 33.0895 35.8002 31.7748 35.8002 30.4299C35.7982 28.627 35.0811 26.8986 33.8063 25.6238C32.5315 24.349 30.803 23.6319 29.0002 23.6299ZM29.0002 36.4299C27.8135 36.4299 26.6535 36.078 25.6668 35.4187C24.6801 34.7594 23.911 33.8223 23.4569 32.726C23.0028 31.6296 22.884 30.4232 23.1155 29.2593C23.347 28.0955 23.9184 27.0264 24.7576 26.1872C25.5967 25.3481 26.6658 24.7767 27.8297 24.5452C28.9935 24.3137 30.1999 24.4325 31.2963 24.8866C32.3927 25.3407 33.3297 26.1098 33.989 27.0965C34.6483 28.0832 35.0002 29.2432 35.0002 30.4299C34.9984 32.0206 34.3657 33.5457 33.2409 34.6705C32.116 35.7954 30.5909 36.4281 29.0002 36.4299Z" fill="#AE0006"/>
</svg>
