<svg width="58" height="58" viewBox="0 0 58 58" fill="none" xmlns="http://www.w3.org/2000/svg">
<path d="M0 9C0 4.02944 4.02944 0 9 0H49C53.9706 0 58 4.02944 58 9V49C58 53.9706 53.9706 58 49 58H9C4.02944 58 0 53.9706 0 49V9Z" fill="#F7F7F7"/>
<path d="M42.2578 47.5323H38.1653V16.5526C38.1652 11.2853 33.8799 7 28.6126 7C23.3453 7 19.06 11.2853 19.06 16.5526V47.5322H14.9675C14.2568 47.5323 13.6787 48.1104 13.6787 48.821V49.7113C13.6787 50.4219 14.2568 51 14.9675 51H42.2578C42.9684 51 43.5465 50.4219 43.5465 49.7113V48.821C43.5465 48.1104 42.9684 47.5323 42.2578 47.5323ZM19.7584 16.5526C19.7584 11.6705 23.7304 7.69841 28.6126 7.69841C33.4949 7.69841 37.4668 11.6705 37.4668 16.5526V47.5322H19.7584V16.5526ZM42.8481 49.7113C42.8481 50.0368 42.5832 50.3016 42.2578 50.3016H14.9675C14.642 50.3016 14.3771 50.0367 14.3771 49.7113V48.821C14.3771 48.4956 14.642 48.2307 14.9675 48.2307H42.2578C42.5833 48.2307 42.8481 48.4956 42.8481 48.821V49.7113Z" fill="#AE0006"/>
<path d="M33.3162 18.4764H23.9087C22.832 18.4764 21.9561 19.3523 21.9561 20.429V25.7646C21.9561 26.8413 22.832 27.7172 23.9087 27.7172H33.3162C34.3929 27.7172 35.2688 26.8413 35.2688 25.7646V20.429C35.2688 19.3523 34.3929 18.4764 33.3162 18.4764ZM34.5704 20.429V21.2102H31.3578V19.1748H33.3163C34.0078 19.1748 34.5704 19.7374 34.5704 20.429ZM31.3578 21.9087H34.5704V24.285H31.3578V21.9087ZM22.6545 25.7646V20.429C22.6545 19.7375 23.2171 19.1748 23.9086 19.1748H30.6593V27.0189H23.9086C23.2171 27.0188 22.6545 26.4561 22.6545 25.7646ZM33.3162 27.0188H31.3577V24.9834H34.5703V25.7646C34.5704 26.4561 34.0078 27.0188 33.3162 27.0188Z" fill="#AE0006"/>
<path d="M29.7848 29.3213H27.4404C26.573 29.3213 25.8672 30.0271 25.8672 30.8945V34.4666C25.8672 35.3341 26.573 36.0398 27.4404 36.0398H29.7848C30.6522 36.0398 31.358 35.3341 31.358 34.4666V30.8945C31.358 30.0271 30.6522 29.3213 29.7848 29.3213ZM27.4404 30.0197H29.7848C30.2671 30.0197 30.6596 30.4122 30.6596 30.8945V32.3314H26.5656V30.8945C26.5656 30.4122 26.9581 30.0197 27.4404 30.0197ZM29.7848 35.3414H27.4404C26.9581 35.3414 26.5656 34.949 26.5656 34.4666V33.0298H30.6596V34.4666C30.6596 34.949 30.2671 35.3414 29.7848 35.3414Z" fill="#AE0006"/>
<path d="M25.9156 14.0774H27.9661L27.2511 16.7414C27.2083 16.9009 27.283 17.0686 27.4303 17.1433C27.4806 17.1688 27.5346 17.1812 27.5881 17.1812C27.6913 17.1812 27.7924 17.1355 27.8605 17.0507L31.5815 12.42C31.6657 12.3153 31.6822 12.1716 31.6242 12.0504C31.5661 11.9292 31.4436 11.8521 31.3093 11.8521H29.4338L29.7985 9.47012C29.8223 9.31464 29.7393 9.16247 29.5956 9.09839C29.452 9.0344 29.2832 9.07412 29.1833 9.19573L25.6457 13.5067C25.56 13.6111 25.5422 13.7555 25.6 13.8775C25.6576 13.9996 25.7807 14.0774 25.9156 14.0774ZM28.9154 10.6232L28.6819 12.1484C28.6665 12.2491 28.6957 12.3515 28.7621 12.4288C28.8284 12.506 28.9253 12.5506 29.0271 12.5506H30.5808L28.3561 15.3192L28.7588 13.8188C28.7869 13.7139 28.7647 13.6019 28.6986 13.5157C28.6325 13.4295 28.5301 13.3791 28.4215 13.3791H26.654L28.9154 10.6232Z" fill="#AE0006"/>
</svg>
