<svg width="58" height="58" viewBox="0 0 58 58" fill="none" xmlns="http://www.w3.org/2000/svg">
<rect width="58" height="58" rx="9" fill="#F7F7F7"/>
<path d="M17.3808 31.0388L17.3807 31.0388L15.6101 32.8094C15.2861 33.1335 15.1041 33.573 15.1041 34.0313C15.1041 34.4896 15.2861 34.9291 15.6101 35.2532L15.6102 35.2532L18.266 37.9115C18.266 37.9115 18.2661 37.9115 18.2661 37.9116C18.5902 38.2355 19.0297 38.4176 19.4879 38.4176C19.9462 38.4176 20.3857 38.2355 20.7098 37.9115L20.7099 37.9114L22.4829 36.1408L22.4829 36.1408C22.6437 35.9803 22.7712 35.7897 22.8583 35.5798C22.9453 35.37 22.9901 35.145 22.9901 34.9178C22.9901 34.6906 22.9453 34.4657 22.8583 34.2558C22.7712 34.046 22.6437 33.8553 22.4829 33.6948L22.4829 33.6948L19.8245 31.0389L19.8245 31.0388C19.6611 30.8753 19.4666 30.7463 19.2524 30.6593C19.0383 30.5724 18.809 30.5293 18.5779 30.5325L17.3808 31.0388ZM17.3808 31.0388C17.6987 30.7207 18.1281 30.5391 18.5778 30.5325L17.3808 31.0388ZM18.5935 31.4847L18.5935 31.4847C18.3908 31.4871 18.1972 31.5687 18.0539 31.712C18.0539 31.712 18.0539 31.712 18.0539 31.712L17.6112 32.1546L17.5052 32.2607L17.6112 32.3668L18.0539 32.8094L18.16 32.9155L18.266 32.8094L19.1513 31.9241L19.2574 31.8181L19.1513 31.712C19.0782 31.6389 18.9912 31.5811 18.8954 31.542C18.7996 31.503 18.697 31.4835 18.5935 31.4847ZM20.0366 32.5973L19.9306 32.4912L19.8245 32.5973L18.9392 33.4826L18.8331 33.5887L18.9392 33.6947L19.8245 34.58L19.9306 34.6861L20.0366 34.58L20.9219 33.6947L21.028 33.5887L20.9219 33.4826L20.0366 32.5973ZM16.9381 33.0399L16.832 32.9339L16.726 33.0399L16.2833 33.4826L16.2833 33.4826C16.1378 33.6281 16.056 33.8255 16.056 34.0313C16.056 34.2371 16.1378 34.4345 16.2833 34.58L16.3894 34.6861L16.4954 34.58L17.3807 33.6947L17.4868 33.5887L17.3807 33.4826L16.9381 33.0399ZM18.266 34.3679L18.16 34.2618L18.0539 34.3679L17.1686 35.2532L17.0627 35.3591L17.1685 35.4652L18.0537 36.3529L18.16 36.4594L18.2662 36.3529L19.1515 35.4652L19.2572 35.3591L19.1513 35.2532L18.266 34.3679ZM21.8097 34.3679L21.7038 34.262L21.5977 34.3677L20.7099 35.253L20.6036 35.3591L20.7098 35.4653L21.1524 35.908L21.2582 36.0137L21.3643 35.9083L21.8094 35.4656L21.8097 35.4653C21.9552 35.3198 22.0369 35.1224 22.0369 34.9166C22.0369 34.7108 21.9552 34.5134 21.8097 34.3679ZM20.0366 36.1409L19.9306 36.0349L19.8245 36.1409L18.9392 37.0262L18.8331 37.1323L18.9392 37.2384C19.0847 37.3839 19.2821 37.4656 19.4879 37.4656C19.6937 37.4656 19.8911 37.3839 20.0366 37.2384L20.0366 37.2384L20.4793 36.7957L20.5853 36.6896L20.4793 36.5836L20.0366 36.1409Z" fill="#AE0006" stroke="#F7F7F7" stroke-width="0.3"/>
<path d="M24.4558 30.2754C24.3672 29.9911 24.2108 29.7326 24.0003 29.522C23.7897 29.3114 23.5312 29.1551 23.2468 29.0665L23.2915 28.9233L23.2469 29.0665C23.1264 29.029 22.9959 29.0409 22.8842 29.0996C22.7725 29.1582 22.6886 29.2589 22.6511 29.3794C22.6135 29.4999 22.6253 29.6304 22.6839 29.7421C22.7425 29.8539 22.843 29.9378 22.9635 29.9755L24.4558 30.2754ZM24.4558 30.2754C24.4933 30.3959 24.4814 30.5262 24.4227 30.6379C24.3641 30.7496 24.2635 30.8335 24.143 30.8711C24.0225 30.9086 23.892 30.8969 23.7803 30.8383C23.6685 30.7798 23.5846 30.6793 23.5469 30.5588L24.4558 30.2754ZM23.327 30.1953C23.2254 30.0937 23.1007 30.0183 22.9635 29.9755L23.5468 30.5587C23.504 30.4215 23.4286 30.2969 23.327 30.1953Z" fill="#AE0006" stroke="#F7F7F7" stroke-width="0.3"/>
<path d="M25.6406 27.8799C26.074 28.3133 26.4062 28.8371 26.6137 29.4137C26.6564 29.5325 26.6502 29.6632 26.5964 29.7774C26.5426 29.8917 26.4456 29.9799 26.3269 30.0226C26.2081 30.0654 26.0772 30.0592 25.9629 30.0054C25.8487 29.9516 25.7605 29.8547 25.7177 29.7359C25.5578 29.2912 25.3016 28.8874 24.9674 28.5533C24.6334 28.2192 24.2297 27.963 23.7852 27.803C23.6676 27.7595 23.5718 27.6714 23.5188 27.5577C23.4657 27.4438 23.4598 27.3136 23.5023 27.1954C23.5448 27.0772 23.6323 26.9806 23.7458 26.9267C23.8592 26.8728 23.9891 26.8657 24.1075 26.9071C24.6839 27.1146 25.2074 27.4467 25.6406 27.8799Z" fill="#AE0006" stroke="#F7F7F7" stroke-width="0.3"/>
<path d="M40.5363 25.1652L37.5172 28.1843L36.844 27.5111L39.8631 24.4919L40.5363 25.1652Z" fill="#AE0006" stroke="#F7F7F7" stroke-width="0.3"/>
<path d="M33.401 32.302L32.7278 31.6288L35.7469 28.6096L36.4201 29.2829L33.401 32.302Z" fill="#AE0006" stroke="#F7F7F7" stroke-width="0.3"/>
<path d="M29.2848 36.4201L28.6115 35.7469L31.6306 32.7278L32.3039 33.4011L29.2848 36.4201Z" fill="#AE0006" stroke="#F7F7F7" stroke-width="0.3"/>
<path d="M25.1676 40.5378L24.4944 39.8645L27.5135 36.8454L28.1867 37.5186L25.1676 40.5378Z" fill="#AE0006" stroke="#F7F7F7" stroke-width="0.3"/>
<path d="M33.3924 11.1504L33.3924 11.1504C33.8728 11.1434 34.3497 11.2329 34.7949 11.4135C35.24 11.5942 35.6444 11.8623 35.9841 12.2021L35.9841 12.2021L44.8591 21.0771L44.8591 21.0771C45.1928 21.4106 45.4576 21.8065 45.6382 22.2423C45.8188 22.6782 45.9118 23.1453 45.9118 23.6171C45.9118 24.0889 45.8188 24.556 45.6382 24.9918C45.4576 25.4277 45.1928 25.8236 44.8591 26.1571L44.8591 26.1571L26.1578 44.8584L26.1578 44.8585C25.8243 45.1922 25.4283 45.4569 24.9925 45.6376C24.5567 45.8182 24.0895 45.9112 23.6178 45.9112C23.146 45.9112 22.6788 45.8182 22.243 45.6376C21.8072 45.4569 21.4112 45.1922 21.0778 44.8585L21.0777 44.8584L12.2027 35.9834L12.2027 35.9834C11.869 35.6499 11.6042 35.254 11.4236 34.8181C11.243 34.3823 11.15 33.9152 11.15 33.4434C11.15 32.9716 11.243 32.5045 11.4236 32.0686C11.6042 31.6328 11.869 31.2369 12.2027 30.9034L12.2027 30.9034L30.904 12.2021L30.904 12.2021C31.565 11.5409 32.4577 11.1637 33.3924 11.1504ZM33.4053 12.1025L33.4052 12.1025C32.7185 12.1124 32.0627 12.3896 31.5772 12.8752L12.8759 31.5765L12.9812 31.6818L12.8759 31.5765C12.3811 32.0713 12.1032 32.7424 12.1032 33.4422C12.1032 34.1419 12.3811 34.813 12.8759 35.3078L12.982 35.2018L12.8759 35.3078L21.7533 44.1852L21.8594 44.0792L21.7533 44.1853C22.2481 44.68 22.9192 44.958 23.619 44.958C24.3187 44.958 24.9898 44.68 25.4846 44.1853L25.3786 44.0792L25.4846 44.1852L44.1859 25.484L44.0798 25.3779L44.1859 25.484C44.6807 24.9892 44.9587 24.3181 44.9587 23.6183C44.9587 22.9186 44.6807 22.2475 44.1859 21.7527L44.0798 21.8587L44.1859 21.7527L35.3085 12.8753C35.059 12.6257 34.7621 12.4288 34.4352 12.2961C34.1083 12.1634 33.758 12.0975 33.4053 12.1025Z" fill="#AE0006" stroke="#F7F7F7" stroke-width="0.3"/>
</svg>
