<svg width="58" height="58" viewBox="0 0 58 58" fill="none" xmlns="http://www.w3.org/2000/svg">
<rect width="58" height="58" rx="9" fill="#F7F7F7"/>
<mask id="path-2-inside-1_983_3100" fill="white">
<path d="M42.9962 30.0328C42.9334 28.7141 42.4659 27.8559 41.7403 27.7443C40.603 27.5699 39.4518 27.5699 38.3075 27.7443C37.5819 27.8559 37.1144 28.7072 37.0516 30.0328C37.0377 30.298 37.0377 31.205 37.5052 31.6934C37.6866 31.8818 37.9238 31.9864 38.168 31.9864H39.3262V33.0051C39.3262 33.6889 38.8797 34.268 38.2517 34.4773C37.8052 33.2074 36.633 32.2864 35.2306 32.2027C33.3956 32.0981 31.5536 32.0492 29.7117 32.0353V27.4303C30.9606 27.4373 32.2095 27.4513 33.4305 27.4931C33.4724 27.4931 33.5142 27.4931 33.5491 27.4931C35.419 27.4931 37.0307 26.1396 37.3168 24.2976L38.0005 19.9787C38.1401 19.0926 37.8959 18.1786 37.3377 17.4669C36.7726 16.7483 35.9213 16.2948 35.0073 16.225C31.0652 15.925 26.9348 15.925 22.9996 16.225C21.3042 16.3576 19.9715 17.7809 19.9715 19.4694C19.9715 19.6368 19.9855 19.8043 20.0064 19.9787L20.6902 24.2976C20.9832 26.1396 22.595 27.4931 24.4579 27.4931C24.4997 27.4931 24.5416 27.4931 24.5765 27.4931C25.7975 27.4582 27.0464 27.4373 28.2953 27.4303V32.0353C26.4464 32.0492 24.6044 32.0981 22.7694 32.2027C21.367 32.2864 20.1948 33.2005 19.7483 34.4773C19.1273 34.261 18.6738 33.6889 18.6738 33.0051V31.9864H19.832C20.0762 31.9864 20.3134 31.8818 20.4948 31.6934C20.9623 31.205 20.9623 30.298 20.9484 30.0328C20.8856 28.7072 20.4181 27.8559 19.6925 27.7443C18.5552 27.5699 17.404 27.5699 16.2597 27.7443C15.5341 27.8559 15.0666 28.7072 15.0038 30.0328C14.9899 30.298 14.9899 31.205 15.4573 31.6934C15.6387 31.8818 15.869 31.9864 16.1202 31.9864H17.2784V33.0051C17.2784 34.4145 18.2761 35.5936 19.6087 35.8936C19.6855 36.2913 19.8529 36.6681 20.125 36.9751C20.5646 37.4705 21.1926 37.7496 21.8554 37.7496H28.3162V40.352H25.944C24.1439 40.352 22.6787 41.8033 22.6787 43.5964C22.6787 43.9802 22.9927 44.2941 23.3764 44.2941C23.7601 44.2941 24.0741 43.9802 24.0741 43.5964C24.0741 42.5778 24.9114 41.7475 25.944 41.7475H28.3162V43.6034C28.3162 43.9872 28.6302 44.3011 29.014 44.3011C29.3977 44.3011 29.7117 43.9872 29.7117 43.6034V41.7545H32.0839C33.1165 41.7545 33.9538 42.5847 33.9538 43.6034C33.9538 43.9872 34.2678 44.3011 34.6515 44.3011C35.0352 44.3011 35.3492 43.9872 35.3492 43.6034C35.3492 41.8173 33.884 40.359 32.0839 40.359H29.7117V37.7565H36.1446C36.8074 37.7565 37.4354 37.4705 37.875 36.9821C38.1471 36.6751 38.3145 36.2983 38.3913 35.9006C39.7239 35.6006 40.7216 34.4215 40.7216 33.0121V31.9934H41.8798C42.124 31.9934 42.3613 31.8887 42.5427 31.7004C43.0101 31.205 43.0101 30.298 42.9962 30.0328ZM16.4272 30.1026C16.4481 29.5863 16.5597 29.2514 16.6365 29.1118C17.5435 28.9862 18.4645 28.9862 19.3715 29.1118C19.4483 29.2514 19.5599 29.5863 19.5808 30.1026C19.5878 30.3119 19.5669 30.4794 19.5459 30.598H16.469C16.4341 30.4794 16.4132 30.3049 16.4272 30.1026ZM24.5555 26.1047C23.3415 26.1675 22.274 25.2744 22.0856 24.0883L21.4019 19.7764C21.3879 19.6787 21.3809 19.581 21.3809 19.4833C21.3809 18.5205 22.1484 17.7111 23.1182 17.6344C25.0509 17.4879 27.0324 17.4111 29.0209 17.4111C31.0024 17.4111 32.984 17.4879 34.9166 17.6344C35.4539 17.6763 35.9283 17.9274 36.2563 18.3461C36.5772 18.7577 36.7167 19.2601 36.633 19.7694L35.9493 24.0883C35.7678 25.2535 34.7422 26.1047 33.5561 26.1047C33.5282 26.1047 33.5072 26.1047 33.4793 26.1047C30.5559 26.014 27.465 26.014 24.5555 26.1047ZM36.8284 36.0541C36.6539 36.2495 36.4097 36.3611 36.1446 36.3611H21.8833C21.6182 36.3611 21.374 36.2495 21.1995 36.0541C21.0321 35.8588 20.9553 35.6146 20.9832 35.3634C21.1019 34.4005 21.8972 33.6609 22.8741 33.6051C24.9114 33.4865 26.9627 33.4307 29.014 33.4307C31.0652 33.4307 33.1165 33.4865 35.1539 33.6051C36.1307 33.6609 36.9261 34.4005 37.0447 35.3634C37.0796 35.6146 37.0028 35.8657 36.8284 36.0541ZM41.5659 30.598H38.4889C38.461 30.4794 38.4401 30.3049 38.4541 30.1026C38.475 29.5863 38.5866 29.2514 38.6634 29.1118C39.5704 28.9862 40.4914 28.9862 41.3984 29.1118C41.4752 29.2514 41.5868 29.5863 41.6077 30.1026C41.6147 30.3049 41.5938 30.4794 41.5659 30.598Z"/>
</mask>
<path d="M42.9962 30.0328C42.9334 28.7141 42.4659 27.8559 41.7403 27.7443C40.603 27.5699 39.4518 27.5699 38.3075 27.7443C37.5819 27.8559 37.1144 28.7072 37.0516 30.0328C37.0377 30.298 37.0377 31.205 37.5052 31.6934C37.6866 31.8818 37.9238 31.9864 38.168 31.9864H39.3262V33.0051C39.3262 33.6889 38.8797 34.268 38.2517 34.4773C37.8052 33.2074 36.633 32.2864 35.2306 32.2027C33.3956 32.0981 31.5536 32.0492 29.7117 32.0353V27.4303C30.9606 27.4373 32.2095 27.4513 33.4305 27.4931C33.4724 27.4931 33.5142 27.4931 33.5491 27.4931C35.419 27.4931 37.0307 26.1396 37.3168 24.2976L38.0005 19.9787C38.1401 19.0926 37.8959 18.1786 37.3377 17.4669C36.7726 16.7483 35.9213 16.2948 35.0073 16.225C31.0652 15.925 26.9348 15.925 22.9996 16.225C21.3042 16.3576 19.9715 17.7809 19.9715 19.4694C19.9715 19.6368 19.9855 19.8043 20.0064 19.9787L20.6902 24.2976C20.9832 26.1396 22.595 27.4931 24.4579 27.4931C24.4997 27.4931 24.5416 27.4931 24.5765 27.4931C25.7975 27.4582 27.0464 27.4373 28.2953 27.4303V32.0353C26.4464 32.0492 24.6044 32.0981 22.7694 32.2027C21.367 32.2864 20.1948 33.2005 19.7483 34.4773C19.1273 34.261 18.6738 33.6889 18.6738 33.0051V31.9864H19.832C20.0762 31.9864 20.3134 31.8818 20.4948 31.6934C20.9623 31.205 20.9623 30.298 20.9484 30.0328C20.8856 28.7072 20.4181 27.8559 19.6925 27.7443C18.5552 27.5699 17.404 27.5699 16.2597 27.7443C15.5341 27.8559 15.0666 28.7072 15.0038 30.0328C14.9899 30.298 14.9899 31.205 15.4573 31.6934C15.6387 31.8818 15.869 31.9864 16.1202 31.9864H17.2784V33.0051C17.2784 34.4145 18.2761 35.5936 19.6087 35.8936C19.6855 36.2913 19.8529 36.6681 20.125 36.9751C20.5646 37.4705 21.1926 37.7496 21.8554 37.7496H28.3162V40.352H25.944C24.1439 40.352 22.6787 41.8033 22.6787 43.5964C22.6787 43.9802 22.9927 44.2941 23.3764 44.2941C23.7601 44.2941 24.0741 43.9802 24.0741 43.5964C24.0741 42.5778 24.9114 41.7475 25.944 41.7475H28.3162V43.6034C28.3162 43.9872 28.6302 44.3011 29.014 44.3011C29.3977 44.3011 29.7117 43.9872 29.7117 43.6034V41.7545H32.0839C33.1165 41.7545 33.9538 42.5847 33.9538 43.6034C33.9538 43.9872 34.2678 44.3011 34.6515 44.3011C35.0352 44.3011 35.3492 43.9872 35.3492 43.6034C35.3492 41.8173 33.884 40.359 32.0839 40.359H29.7117V37.7565H36.1446C36.8074 37.7565 37.4354 37.4705 37.875 36.9821C38.1471 36.6751 38.3145 36.2983 38.3913 35.9006C39.7239 35.6006 40.7216 34.4215 40.7216 33.0121V31.9934H41.8798C42.124 31.9934 42.3613 31.8887 42.5427 31.7004C43.0101 31.205 43.0101 30.298 42.9962 30.0328ZM16.4272 30.1026C16.4481 29.5863 16.5597 29.2514 16.6365 29.1118C17.5435 28.9862 18.4645 28.9862 19.3715 29.1118C19.4483 29.2514 19.5599 29.5863 19.5808 30.1026C19.5878 30.3119 19.5669 30.4794 19.5459 30.598H16.469C16.4341 30.4794 16.4132 30.3049 16.4272 30.1026ZM24.5555 26.1047C23.3415 26.1675 22.274 25.2744 22.0856 24.0883L21.4019 19.7764C21.3879 19.6787 21.3809 19.581 21.3809 19.4833C21.3809 18.5205 22.1484 17.7111 23.1182 17.6344C25.0509 17.4879 27.0324 17.4111 29.0209 17.4111C31.0024 17.4111 32.984 17.4879 34.9166 17.6344C35.4539 17.6763 35.9283 17.9274 36.2563 18.3461C36.5772 18.7577 36.7167 19.2601 36.633 19.7694L35.9493 24.0883C35.7678 25.2535 34.7422 26.1047 33.5561 26.1047C33.5282 26.1047 33.5072 26.1047 33.4793 26.1047C30.5559 26.014 27.465 26.014 24.5555 26.1047ZM36.8284 36.0541C36.6539 36.2495 36.4097 36.3611 36.1446 36.3611H21.8833C21.6182 36.3611 21.374 36.2495 21.1995 36.0541C21.0321 35.8588 20.9553 35.6146 20.9832 35.3634C21.1019 34.4005 21.8972 33.6609 22.8741 33.6051C24.9114 33.4865 26.9627 33.4307 29.014 33.4307C31.0652 33.4307 33.1165 33.4865 35.1539 33.6051C36.1307 33.6609 36.9261 34.4005 37.0447 35.3634C37.0796 35.6146 37.0028 35.8657 36.8284 36.0541ZM41.5659 30.598H38.4889C38.461 30.4794 38.4401 30.3049 38.4541 30.1026C38.475 29.5863 38.5866 29.2514 38.6634 29.1118C39.5704 28.9862 40.4914 28.9862 41.3984 29.1118C41.4752 29.2514 41.5868 29.5863 41.6077 30.1026C41.6147 30.3049 41.5938 30.4794 41.5659 30.598Z" fill="#AE0006" stroke="#F7F7F7" stroke-width="0.6" mask="url(#path-2-inside-1_983_3100)"/>
</svg>
