<svg width="58" height="58" viewBox="0 0 58 58" fill="none" xmlns="http://www.w3.org/2000/svg">
<rect width="58" height="58" rx="9" fill="#F7F7F7"/>
<path d="M42.3931 22.2006C42.1998 22.0806 41.979 22.0121 41.7517 22.0015C41.5244 21.9908 41.2982 22.0385 41.0945 22.1399L35.026 25.1741V23.839C35.026 23.3562 34.8342 22.8931 34.4928 22.5517C34.1514 22.2103 33.6883 22.0185 33.2055 22.0185H16.8205C16.3377 22.0185 15.8746 22.2103 15.5332 22.5517C15.1918 22.8931 15 23.3562 15 23.839V36.4008C15 36.8836 15.1918 37.3467 15.5332 37.6881C15.8746 38.0295 16.3377 38.2214 16.8205 38.2214H33.2055C33.6883 38.2214 34.1514 38.0295 34.4928 37.6881C34.8342 37.3467 35.026 36.8836 35.026 36.4008V35.0415L41.0945 38.0757C41.2982 38.1771 41.5244 38.2247 41.7517 38.2141C41.979 38.2035 42.1998 38.135 42.3931 38.015C42.58 37.8934 42.7334 37.727 42.8394 37.5309C42.9454 37.3348 43.0006 37.1153 43 36.8924V23.3111C42.9986 23.0902 42.9424 22.8732 42.8365 22.6793C42.7306 22.4855 42.5783 22.321 42.3931 22.2006ZM33.788 36.3705C33.788 36.5314 33.7241 36.6858 33.6103 36.7996C33.4965 36.9134 33.3421 36.9773 33.1812 36.9773H16.7963C16.6353 36.9773 16.481 36.9134 16.3672 36.7996C16.2534 36.6858 16.1894 36.5314 16.1894 36.3705V23.8087C16.1894 23.6478 16.2534 23.4934 16.3672 23.3796C16.481 23.2658 16.6353 23.2019 16.7963 23.2019H33.1812C33.3421 23.2019 33.4965 23.2658 33.6103 23.3796C33.7241 23.4934 33.788 23.6478 33.788 23.8087V36.3705ZM41.8045 36.8681C41.8039 36.8866 41.7986 36.9047 41.789 36.9207C41.7794 36.9366 41.766 36.9498 41.7499 36.9591C41.7326 36.9699 41.7126 36.9756 41.6922 36.9756C41.6719 36.9756 41.6519 36.9699 41.6346 36.9591L35.0442 33.6761C35.0385 33.6562 35.0385 33.6352 35.0442 33.6154V26.5638C35.0442 26.5335 35.0442 26.5092 35.111 26.4667L41.6771 23.214H41.7317C41.7517 23.2097 41.7724 23.2097 41.7924 23.214C41.8085 23.2233 41.8219 23.2365 41.8315 23.2524C41.841 23.2684 41.8464 23.2865 41.847 23.305L41.8045 36.8681Z" fill="#AE0006"/>
</svg>
