<svg width="58" height="58" viewBox="0 0 58 58" fill="none" xmlns="http://www.w3.org/2000/svg">
<rect width="58" height="58" rx="9" fill="#F7F7F7"/>
<path d="M21.9332 30.5342C21.831 30.5342 21.7234 30.4965 21.6427 30.4158L17.6936 26.456C16.8113 25.5683 16.3109 24.4008 16.2787 23.1472L15.1488 22.2218C14.9767 22.0766 14.9498 21.8237 15.0896 21.6461C15.2349 21.474 15.4878 21.4471 15.6653 21.587L16.9458 22.6307C17.0426 22.7114 17.0964 22.8298 17.0964 22.9535C17.0803 24.0618 17.4946 25.1002 18.2693 25.875L22.2237 29.8348C22.3852 29.9962 22.3852 30.2544 22.2237 30.4104C22.143 30.4965 22.0408 30.5342 21.9332 30.5342Z" fill="#AE0006"/>
<path d="M27.6739 23.6149C27.5716 23.6149 27.464 23.5773 27.3833 23.4966L25.2689 21.3822C25.1452 21.2584 25.1129 21.0701 25.1882 20.9141C25.2635 20.7581 25.4303 20.6666 25.6025 20.6881L27.7815 20.9464C27.9482 20.9679 28.115 20.9195 28.2495 20.8119C28.384 20.7043 28.4701 20.5536 28.4863 20.3868L28.5024 20.2362C28.5454 19.8865 28.2926 19.5691 27.9482 19.5314L22.3206 18.8589C21.7019 18.7674 21.0993 18.7835 20.5182 18.9019C20.3891 18.9288 20.2546 18.8912 20.1631 18.8051L19.0226 17.7613C18.8558 17.6107 18.845 17.3524 18.9957 17.1856C19.1463 17.0189 19.4045 17.0081 19.5713 17.1587L20.5613 18.0626C21.1692 17.9604 21.7987 17.955 22.439 18.0518L28.0559 18.7244C28.8521 18.8212 29.4224 19.5422 29.3256 20.3384L29.3094 20.4891C29.261 20.8711 29.0727 21.2154 28.766 21.4575C28.4594 21.6996 28.0828 21.8072 27.6954 21.7588L26.6839 21.6404L27.9644 22.9209C28.1258 23.0823 28.1258 23.3405 27.9644 23.4966C27.8837 23.5773 27.7815 23.6149 27.6739 23.6149Z" fill="#AE0006"/>
<path d="M35.9702 30.5336C35.868 30.5336 35.7603 30.496 35.6796 30.4153C35.5182 30.2539 35.5182 29.9956 35.6796 29.8396L39.6287 25.8798C40.4034 25.1051 40.8231 24.0667 40.8016 22.9584C40.8016 22.8508 40.8392 22.7485 40.9145 22.6732L42.2972 21.2206C42.4533 21.0592 42.7115 21.0484 42.8729 21.2044C43.0343 21.3605 43.0451 21.6187 42.8891 21.7801L41.6193 23.1144C41.5978 24.3787 41.0975 25.5624 40.2044 26.4555L36.2553 30.4153C36.18 30.496 36.0724 30.5336 35.9702 30.5336Z" fill="#AE0006"/>
<path d="M30.3051 23.5396C30.2029 23.5396 30.0953 23.5019 30.0146 23.4212C29.8532 23.2598 29.8532 23.0016 30.0146 22.8456L31.2198 21.6404L30.2083 21.7588C29.8263 21.8018 29.4443 21.6996 29.1376 21.4575C28.831 21.2154 28.6373 20.871 28.5942 20.489L28.5781 20.3384C28.4813 19.5421 29.0516 18.8158 29.8478 18.7243L35.4271 18.0572C36.0942 17.9604 36.7237 17.9657 37.3263 18.0626L38.2678 17.1211C38.4292 16.9596 38.6874 16.9596 38.8435 17.1211C39.0049 17.2825 39.0049 17.5407 38.8435 17.6967L37.7513 18.7889C37.6544 18.8857 37.5146 18.9288 37.3801 18.9019C36.8044 18.7835 36.1964 18.7674 35.5777 18.8588L35.5185 18.8642L29.9393 19.5314C29.5896 19.5744 29.3421 19.8918 29.3851 20.2362L29.4013 20.3868C29.4228 20.5536 29.5035 20.7042 29.638 20.8118C29.7725 20.9195 29.9339 20.9625 30.1061 20.9464L32.285 20.6881C32.4626 20.6666 32.624 20.758 32.6993 20.9141C32.7746 21.0701 32.7423 21.2584 32.6186 21.3821L30.5795 23.4212C30.515 23.4965 30.4127 23.5396 30.3051 23.5396Z" fill="#AE0006"/>
<path d="M34.3996 31.982C34.1737 31.982 33.9907 31.7991 33.9907 31.5785L33.9692 28.1998C33.9692 27.8016 33.6464 27.4735 33.259 27.4735H33.2536C33.0707 27.4735 32.9039 27.5434 32.7748 27.6725C32.6403 27.807 32.565 27.9899 32.565 28.1783L32.5865 31.557C32.5865 31.783 32.4036 31.9659 32.1776 31.9659C31.9355 31.9605 31.7687 31.783 31.7687 31.557L31.7472 28.1783C31.7418 27.764 31.9032 27.3766 32.1938 27.0861C32.4789 26.8009 32.8663 26.6395 33.2644 26.6449C34.0983 26.6503 34.7816 27.3389 34.787 28.1836L34.8085 31.5624C34.8085 31.7991 34.6256 31.982 34.3996 31.982Z" fill="#AE0006"/>
<path d="M32.177 31.9711C31.951 31.9711 31.7681 31.7882 31.7681 31.5622L31.7358 26.4941C31.7358 26.0959 31.413 25.7678 31.0256 25.7678H31.0202C30.8373 25.7678 30.6705 25.8377 30.5414 25.9668C30.4069 26.1013 30.3316 26.2843 30.3316 26.4726L30.3639 31.5407C30.3639 31.7666 30.1809 31.9496 29.955 31.9496C29.729 31.9496 29.5461 31.7666 29.5461 31.5407L29.5138 26.4726C29.5084 26.0583 29.6698 25.6709 29.9604 25.3804C30.2455 25.0952 30.6221 24.9392 31.0202 24.9392C31.0256 24.9392 31.0256 24.9392 31.031 24.9392C31.8649 24.9446 32.5482 25.6333 32.5536 26.4779L32.5859 31.5461C32.5859 31.7828 32.403 31.9657 32.177 31.9711Z" fill="#AE0006"/>
<path d="M29.9557 31.9549C29.7297 31.9549 29.5468 31.772 29.5468 31.5514L29.5091 25.3535C29.5091 24.9553 29.1863 24.6271 28.7989 24.6271H28.7936C28.6106 24.6271 28.4438 24.6971 28.3147 24.8262C28.1802 24.9607 28.1049 25.1436 28.1049 25.3319L28.1426 31.5299C28.1426 31.7558 27.9596 31.9388 27.7337 31.9388C27.5077 31.9388 27.3248 31.7558 27.3248 31.5299L27.2871 25.3319C27.2871 24.9177 27.4431 24.5303 27.7337 24.2398C28.0188 23.9546 28.39 23.7986 28.7989 23.7986C29.6329 23.804 30.3161 24.4926 30.3215 25.3373L30.3592 31.5353C30.3646 31.772 30.1816 31.9549 29.9557 31.9549Z" fill="#AE0006"/>
<path d="M33.0701 40.1975H33.0648C32.8388 40.1921 32.6559 40.0092 32.6612 39.7832L32.6828 38.153C32.6828 38.0454 32.7258 37.9432 32.8065 37.8679C33.592 37.0985 34.0171 36.0655 34.0117 34.9572L33.9794 29.3242C33.9794 29.0982 34.1623 28.9153 34.3883 28.9153C34.6142 28.9153 34.7972 29.0982 34.7972 29.3242L34.8295 34.9572C34.8348 36.2269 34.3668 37.4213 33.5006 38.3306L33.479 39.794C33.4737 40.0146 33.2907 40.1975 33.0701 40.1975Z" fill="#AE0006"/>
<path d="M27.3189 40.1976C27.3135 40.1976 27.3135 40.1976 27.3082 40.1976C27.0822 40.1923 26.9046 40.004 26.91 39.778L26.9315 38.8257C26.4366 38.4652 25.9954 38.0187 25.608 37.5022L22.1055 32.999C21.6106 32.3641 21.7182 31.4495 22.3369 30.9545L22.4499 30.8631C22.7512 30.6263 23.1224 30.5187 23.5098 30.5618C23.8971 30.6102 24.2468 30.8039 24.4836 31.1159L25.1077 31.9176L25.0754 26.4513C25.07 26.037 25.2314 25.6497 25.5219 25.3591C25.8071 25.074 26.1837 24.918 26.5818 24.918C26.5872 24.918 26.5872 24.918 26.5926 24.918C27.4265 24.9233 28.1098 25.612 28.1152 26.4567L28.1475 30.2981C28.1475 30.5241 27.9699 30.707 27.744 30.7124C27.744 30.7124 27.744 30.7124 27.7386 30.7124C27.5126 30.7124 27.3297 30.5295 27.3297 30.3089L27.2974 26.4675C27.2974 26.0693 26.9746 25.7411 26.5872 25.7411C26.4043 25.7465 26.2321 25.8111 26.103 25.9402C25.9685 26.0747 25.8932 26.2576 25.8932 26.4459L25.9308 33.1066C25.9308 33.2841 25.8232 33.4402 25.6564 33.494C25.4897 33.5531 25.3067 33.4993 25.1991 33.3594L23.838 31.6109C23.7303 31.4764 23.5797 31.3903 23.4075 31.3688C23.2461 31.3473 23.0847 31.3957 22.9556 31.4979L22.8426 31.5894C22.5682 31.8046 22.5252 32.2135 22.7458 32.4932L26.2644 37.0126C26.641 37.5183 27.0768 37.9433 27.5718 38.2769C27.6848 38.3522 27.7547 38.4867 27.7493 38.6266L27.7224 39.7995C27.7224 40.0201 27.5395 40.1976 27.3189 40.1976Z" fill="#AE0006"/>
</svg>
