<svg width="58" height="58" viewBox="0 0 58 58" fill="none" xmlns="http://www.w3.org/2000/svg">
<rect width="58" height="58" rx="9" fill="#F7F7F7"/>
<path d="M40.6374 30.9079L40.5223 31.0093L40.6615 31.0737C41.9812 31.6846 42.9 33.0177 42.9 34.5635C42.9 34.7848 42.7213 34.9635 42.5 34.9635C42.2787 34.9635 42.1 34.7848 42.1 34.5635C42.1 32.8833 40.7332 31.5165 39.053 31.5165C37.3728 31.5165 36.006 32.8833 36.006 34.5635C36.006 34.6781 35.9567 34.7802 35.8775 34.8537L35.8289 34.8988L35.8515 34.9611C36.1328 35.736 36.2935 36.567 36.2935 37.4365C36.2935 37.6578 36.1148 37.8365 35.8935 37.8365C35.6722 37.8365 35.4935 37.6578 35.4935 37.4365C35.4935 33.8553 32.5807 30.9425 29 30.9425C25.4193 30.9425 22.5065 33.8553 22.5065 37.4365C22.5065 37.6578 22.3278 37.8365 22.1065 37.8365C21.8852 37.8365 21.7065 37.6578 21.7065 37.4365C21.7065 36.567 21.8677 35.736 22.1485 34.9611L22.171 34.8992L22.1229 34.8541C22.0436 34.7796 21.994 34.6777 21.994 34.5635C21.994 32.8833 20.6272 31.5165 18.947 31.5165C17.2668 31.5165 15.9 32.8833 15.9 34.5635C15.9 34.7848 15.7213 34.9635 15.5 34.9635C15.2787 34.9635 15.1 34.7848 15.1 34.5635C15.1 33.0177 16.0188 31.6846 17.3395 31.0738L17.4787 31.0093L17.3636 30.9079C16.8604 30.4649 16.537 29.825 16.537 29.106C16.537 27.7767 17.6187 26.6955 18.9475 26.6955C20.2763 26.6955 21.358 27.7767 21.358 29.106C21.358 29.825 21.0346 30.4649 20.5314 30.9079L20.4163 31.0093L20.5555 31.0738C21.5712 31.5436 22.3466 32.4419 22.6506 33.5363L22.7111 33.754L22.8316 33.5628C23.7315 32.1351 25.1073 31.0396 26.7386 30.5055L26.9485 30.4368L26.7584 30.3244C25.4558 29.554 24.579 28.1394 24.579 26.521C24.579 24.0837 26.5627 22.1 29.0005 22.1C31.4383 22.1 33.422 24.0832 33.422 26.521C33.422 28.1394 32.5447 29.554 31.2426 30.3244L31.0526 30.4368L31.2624 30.5055C32.8937 31.0396 34.27 32.1351 35.1694 33.5628L35.2899 33.754L35.3503 33.5363C35.6544 32.4419 36.4303 31.5436 37.4455 31.0738L37.5847 31.0093L37.4696 30.9079C36.9664 30.4649 36.643 29.825 36.643 29.106C36.643 27.7767 37.7247 26.6955 39.0535 26.6955C40.3823 26.6955 41.464 27.7767 41.464 29.106C41.464 29.825 41.1406 30.4649 40.6374 30.9079ZM18.9465 27.4955C18.0583 27.4955 17.336 28.2178 17.336 29.106C17.336 29.9942 18.0583 30.7165 18.9465 30.7165C19.8347 30.7165 20.557 29.9942 20.557 29.106C20.557 28.2178 19.8347 27.4955 18.9465 27.4955ZM29 22.9C27.0028 22.9 25.3785 24.5243 25.3785 26.521C25.3785 28.5177 27.0028 30.142 29 30.142C30.9972 30.142 32.6215 28.5177 32.6215 26.521C32.6215 24.5243 30.9972 22.9 29 22.9ZM39.053 27.4955C38.1648 27.4955 37.4425 28.2178 37.4425 29.106C37.4425 29.9942 38.1648 30.7165 39.053 30.7165C39.9412 30.7165 40.6635 29.9942 40.6635 29.106C40.6635 28.2178 39.9412 27.4955 39.053 27.4955Z" fill="#AE0006" stroke="#F7F7F7" stroke-width="0.2"/>
</svg>
